<svg width="34" height="34" fill="none" xmlns="http://www.w3.org/2000/svg"><circle cx="17" cy="11" r="6" stroke="#000" stroke-width="2"/><mask id="a" fill="#fff"><path d="M8.87 19.428c1.822-1.904 14.438-1.904 16.26 0 1.124 1.175 1.953 4.162 2.424 6.278C27.82 26.905 26.89 28 25.66 28H8.34c-1.229 0-2.16-1.095-1.893-2.294.47-2.116 1.3-5.103 2.424-6.277z"/></mask><path d="M25.13 19.428l-1.445 1.383 1.445-1.383zM6.446 25.706l-1.952-.434 1.952.434zm21.108 0l1.952-.434-1.952.434zm-17.24-4.895c-.111.117-.09.035.349-.115.38-.13.91-.256 1.58-.365C13.577 20.115 15.27 20 17 20c1.73 0 3.423.115 4.757.331.67.109 1.2.236 1.58.365.438.15.46.232.348.115l2.89-2.765c-.567-.593-1.338-.928-1.945-1.135-.666-.228-1.435-.399-2.232-.528C20.796 16.123 18.88 16 17 16s-3.796.123-5.398.383c-.797.13-1.566.3-2.232.528-.607.207-1.378.542-1.946 1.135l2.89 2.765zm13.371 0c.242.253.617.932 1.015 2.066.37 1.052.675 2.242.901 3.263l3.905-.868c-.244-1.096-.588-2.457-1.032-3.72-.415-1.183-1.017-2.584-1.898-3.506l-2.89 2.765zM25.661 26H8.34v4h17.32v-4zM8.4 26.14c.226-1.02.531-2.21.901-3.263.398-1.134.773-1.813 1.015-2.066l-2.89-2.765c-.882.922-1.484 2.323-1.9 3.506-.443 1.263-.787 2.624-1.031 3.72l3.905.868zM8.34 26c-.007 0-.003-.001.006.003a.07.07 0 01.024.02c.008.01.02.028.026.054.008.03.005.054.004.063l-3.905-.868C3.933 27.797 5.91 30 8.339 30v-4zm17.262.14a.15.15 0 01.004-.063.14.14 0 01.026-.055.07.07 0 01.024-.019c.01-.004.013-.003.006-.003v4c2.428 0 4.406-2.203 3.845-4.728l-3.905.868z" fill="#000" mask="url(#a)"/></svg>