<svg width="27" height="27" fill="none" xmlns="http://www.w3.org/2000/svg"><circle cx="13.5" cy="9.065" r="6.065" fill="#F9C859" stroke="#000" stroke-width="2"/><path d="M5.803 18.358c.069-.076.292-.235.788-.412.469-.168 1.08-.317 1.809-.441 1.452-.247 3.267-.374 5.1-.374 1.833 0 3.648.127 5.1.374.728.124 1.34.273 1.809.44.496.178.72.337.788.413.445.487.912 1.485 1.34 2.784.412 1.255.742 2.643.978 3.78.113.542-.3 1.078-.924 1.078H4.409c-.624 0-1.037-.536-.924-1.078.236-1.137.566-2.526.979-3.78.427-1.3.894-2.297 1.339-2.784z" fill="#F9C859" stroke="#000" stroke-width="2"/></svg>