<svg width="31" height="19" fill="none" xmlns="http://www.w3.org/2000/svg"><path d="M5.563 1H1.027C.46 7.767 8.965 19.044 16.337 17.917c1.733-.265-.567-4.512 1.7-5.076 1.815-.451 4.915 3.196 6.238 5.076 1.701.188 3.97-.002 5.67 0 .567-1.128-3.402-5.076-6.237-7.894C27.11 6.639 28.811 2.129 29.378 1h-5.103c-1.89 2.632-5.103 8.175-6.804 7.33-.907-.451-.756-5.262-.567-7.33H10.1c2.268 1.128 2.834 9.023 1.133 9.023-1.7 0-5.103-7.895-5.67-9.023z" stroke="#fff" stroke-width="2" stroke-linejoin="round"/></svg>