<svg width="31" height="19" fill="none" xmlns="http://www.w3.org/2000/svg"><path d="M1.027 1V0A1 1 0 00.03.917L1.027 1zm4.536 0l.894-.449a1 1 0 00-.893-.55v1zM10.1 1V0a1 1 0 00-.446 1.896L10.1 1zm6.804 0l.996.091a1 1 0 00-.996-1.09v1zm7.37 0V0a1 1 0 00-.811.417l.812.583zm5.104 0l.894.45A1 1 0 0029.378 0v1zm-5.67 9.023l-.705-.71a1 1 0 000 1.42l.705-.71zm6.237 7.894v1a1 1 0 00.894-.551l-.894-.45zm-5.67 0l-.818.575a1 1 0 00.708.419l.11-.994zm-7.938 0l.15.988-.15-.988zM1.027 2h4.535l.002-2H1.027v2zm3.643-.55c.234.465 1.293 2.852 2.422 4.957.574 1.071 1.204 2.145 1.817 2.964.304.407.63.786.968 1.073.31.262.78.579 1.356.579v-2c.151 0 .143.07-.061-.104-.176-.15-.4-.396-.662-.746-.522-.698-1.096-1.668-1.656-2.711C7.714 3.337 6.79 1.214 6.457.552L4.67 1.45zm6.563 9.573c.668 0 1.117-.409 1.37-.794.243-.371.384-.826.47-1.262.177-.888.189-2.017.077-3.133-.113-1.122-.359-2.306-.744-3.307-.363-.944-.939-1.963-1.861-2.422l-.89 1.79c.21.106.556.496.884 1.35.306.795.521 1.797.62 2.79.101.998.078 1.914-.047 2.542-.064.321-.14.492-.182.556-.034.051.061-.11.303-.11v2zM10.1 2h6.803V0H10.1v2zM15.908.91a38.586 38.586 0 00-.131 4.395c.027.78.09 1.552.216 2.178.062.31.15.628.277.905.116.251.336.628.756.837l.89-1.79c.193.095.22.223.17.117a2.271 2.271 0 01-.133-.465c-.094-.467-.152-1.112-.177-1.85-.05-1.467.032-3.144.124-4.146L15.908.91zm1.118 8.315c.995.495 1.97-.057 2.573-.523.672-.521 1.354-1.299 1.992-2.119 1.252-1.608 2.624-3.786 3.496-5L23.463.418c-1.019 1.418-2.198 3.328-3.45 4.938-.614.789-1.172 1.403-1.64 1.766-.538.417-.602.241-.457.313l-.89 1.791zM24.276 2h5.102V0h-5.103v2zM28.484.551c-.627 1.248-2.23 5.528-5.482 8.763l1.41 1.418c3.553-3.534 5.351-8.273 5.859-9.283L28.485.551zm-5.482 10.181c1.425 1.416 3.096 3.08 4.342 4.525.626.726 1.111 1.36 1.402 1.854.146.249.217.42.244.52.031.115-.027.012.06-.163l1.788.898c.23-.458.171-.93.083-1.257a4.229 4.229 0 00-.451-1.012c-.383-.651-.961-1.393-1.611-2.146-1.306-1.516-3.037-3.236-4.447-4.637l-1.41 1.418zm6.943 6.185c-.864 0-1.904.047-2.86.07-.987.024-1.922.022-2.701-.064l-.22 1.988c.922.101 1.972.1 2.969.075 1.03-.024 1.974-.07 2.81-.07l.002-2zm-4.853.424c-.688-.977-1.838-2.416-3.07-3.567-.613-.573-1.283-1.108-1.954-1.473-.645-.35-1.456-.634-2.272-.43l.482 1.94c.09-.022.347-.018.835.247.462.251.99.66 1.544 1.178 1.102 1.03 2.164 2.354 2.8 3.256l1.635-1.15zm-7.296-5.47a2.28 2.28 0 00-1.147.66c-.295.32-.461.691-.556 1.042-.18.665-.142 1.418-.105 1.982.042.654.08 1.082.036 1.395-.02.139-.045.141-.01.094a.34.34 0 01.15-.11l.02-.006.303 1.977c.456-.07.85-.292 1.125-.658.25-.332.348-.71.392-1.014.082-.577.012-1.296-.02-1.806-.04-.602-.042-1.033.04-1.331a.492.492 0 01.094-.207c.014-.015.048-.05.16-.078l-.482-1.94zm-1.612 5.057c-3.152.482-6.804-1.706-9.716-5.154-1.427-1.69-2.612-3.612-3.403-5.503C2.27 4.37 1.9 2.561 2.023 1.084L.03.917c-.16 1.905.32 4.046 1.19 6.126.875 2.09 2.17 4.186 3.721 6.021 3.041 3.6 7.328 6.487 11.547 5.841l-.303-1.977z" fill="#000"/></svg>