<svg width="44" height="57" fill="none" xmlns="http://www.w3.org/2000/svg"><g clip-path="url(#clip0_447_4690)"><mask id="a" maskUnits="userSpaceOnUse" x="-1.111" y="-1.115" width="47" height="59" fill="#000"><path fill="#fff" d="M-1.111-1.115h47v59h-47z"/><path fill-rule="evenodd" clip-rule="evenodd" d="M22 4.885c-9.45 0-17.111 7.484-17.111 16.717 0 2.142.412 4.19 1.163 6.072 1.23 3.868 6.064 11.646 15.13 23.425.506.706 1.155.637 1.631 0 9.027-11.727 13.859-19.49 15.114-23.375a16.34 16.34 0 001.184-6.122c0-9.233-7.66-16.717-17.112-16.717zm0 27.686c5.85 0 10.592-4.74 10.592-10.586 0-5.847-4.742-10.586-10.592-10.586-5.85 0-10.593 4.74-10.593 10.586S16.15 32.57 22 32.57z"/></mask><path fill-rule="evenodd" clip-rule="evenodd" d="M22 4.885c-9.45 0-17.111 7.484-17.111 16.717 0 2.142.412 4.19 1.163 6.072 1.23 3.868 6.064 11.646 15.13 23.425.506.706 1.155.637 1.631 0 9.027-11.727 13.859-19.49 15.114-23.375a16.34 16.34 0 001.184-6.122c0-9.233-7.66-16.717-17.112-16.717zm0 27.686c5.85 0 10.592-4.74 10.592-10.586 0-5.847-4.742-10.586-10.592-10.586-5.85 0-10.593 4.74-10.593 10.586S16.15 32.57 22 32.57z" fill="#000"/><path d="M6.052 27.674l5.718-1.817-.065-.206-.08-.2-5.573 2.223zm15.13 23.425l4.873-3.5-.058-.08-.06-.079-4.755 3.66zm1.631 0l-4.754-3.66-.026.034-.025.033 4.805 3.593zm15.114-23.375l-5.565-2.243-.08.197-.064.201 5.709 1.845zm-27.038-6.122c0-5.788 4.841-10.717 11.11-10.717v-12c-12.63 0-23.11 10.04-23.11 22.717h12zm.736 3.848a10.345 10.345 0 01-.736-3.848h-12c0 2.918.563 5.72 1.59 8.295l11.146-4.447zm14.311 21.99c-4.467-5.805-7.832-10.547-10.204-14.254-2.45-3.83-3.6-6.189-3.962-7.33L.334 29.492c.867 2.727 2.75 6.193 5.29 10.163 2.62 4.094 6.205 9.131 10.803 15.105l9.51-7.319zm-7.928.066c.398-.531 1.629-1.834 3.82-1.9 2.353-.072 3.75 1.328 4.227 1.993l-9.747 7c.985 1.37 2.958 3.09 5.882 3 2.761-.082 4.555-1.738 5.428-2.906l-9.61-7.187zm14.21-21.627c-.377 1.166-1.54 3.536-3.986 7.356-2.37 3.7-5.725 8.425-10.173 14.205l9.509 7.32c4.578-5.949 8.152-10.968 10.769-15.053 2.54-3.965 4.42-7.419 5.3-10.138l-11.42-3.69zm.893-4.277c0 1.377-.267 2.682-.75 3.88l11.13 4.485a22.34 22.34 0 001.62-8.365h-12zM21.999 10.885c6.27 0 11.112 4.929 11.112 10.717h12c0-12.678-10.48-22.717-23.112-22.717v12zm4.593 11.1A4.59 4.59 0 0122 26.57v12c9.16 0 16.592-7.422 16.592-16.585h-12zM22 17.399a4.59 4.59 0 014.592 4.586h12C38.592 12.82 31.16 5.399 22 5.399v12zm-4.593 4.586A4.59 4.59 0 0122 17.399v-12c-9.16 0-16.593 7.422-16.593 16.586h12zM22 26.57a4.59 4.59 0 01-4.593-4.585h-12C5.407 31.148 12.84 38.57 22 38.57v-12z" fill="#fff" mask="url(#a)"/><ellipse cx="22" cy="21.985" rx="6.519" ry="6.514" fill="#F9C859"/></g><defs><clipPath id="clip0_447_4690"><path fill="#fff" d="M0 0h44v57H0z"/></clipPath></defs></svg>