<svg width="50" height="68" fill="none" xmlns="http://www.w3.org/2000/svg"><ellipse cx="22.484" cy="12.082" rx="11" ry="10.5" fill="#F9C859"/><path d="M33.964 66.582h-7.26c-12.093 0-9.077-7.097-23.156-23.547a3.492 3.492 0 010-5.018 3.69 3.69 0 015.134 0l5.317 5.198c1.541 1.506 4.14 1.091 5.11-.816a3.06 3.06 0 00.334-1.388V15.13c0-1.96 1.625-3.549 3.63-3.549s3.63 1.589 3.63 3.548v15.968c0-1.96 1.625-3.548 3.63-3.548s3.63 1.588 3.63 3.548v3.549c0-1.96 1.626-3.549 3.63-3.549 2.006 0 3.631 1.589 3.631 3.549v3.548c0-1.96 1.625-3.548 3.63-3.548s3.63 1.588 3.63 3.548v14.194c0 7.838-6.5 14.193-14.52 14.193z" fill="#fff"/><mask id="a" maskUnits="userSpaceOnUse" x="0" y="-.711" width="50" height="69" fill="#000"><path fill="#fff" d="M0-.711h50v69H0z"/><path fill-rule="evenodd" clip-rule="evenodd" d="M22.791 2.29c-5.652 0-10.233 4.58-10.233 10.233 0 2.093.627 4.037 1.705 5.658l.277.416-.833.554-.277-.416a11.184 11.184 0 01-1.872-6.212c0-6.205 5.03-11.234 11.233-11.234 6.204 0 11.234 5.03 11.234 11.234 0 2.296-.69 4.432-1.873 6.212l-.277.416-.833-.554.277-.416a10.183 10.183 0 001.706-5.659c0-5.651-4.582-10.233-10.234-10.233zm0 8.944a3.078 3.078 0 00-3.077 3.077v26.095c0 .563-.13 1.119-.382 1.623-1.109 2.229-4.077 2.713-5.837.953l-5.24-5.241A3.078 3.078 0 103.9 42.093l.016.016.014.017c5.222 6.242 8.088 11.183 10.226 14.87.713 1.23 1.345 2.32 1.957 3.272 1.226 1.908 2.352 3.24 3.863 4.111 1.509.87 3.46 1.31 6.392 1.31h7.156c7.628 0 13.811-6.183 13.811-13.81V37.566a3.078 3.078 0 00-6.155 0v.536h-1v-4.114a3.078 3.078 0 00-6.156 0v4.079h-1v-7.655a3.078 3.078 0 00-6.156 0v7.655h-1V14.312c0-1.7-1.378-3.078-3.078-3.078zm4.078 16.502V14.311a4.078 4.078 0 10-8.155 0v26.095a2.644 2.644 0 01-4.512 1.869l-5.24-5.241a4.078 4.078 0 00-5.784 5.75c5.151 6.16 7.95 10.985 10.083 14.663.725 1.25 1.374 2.368 2.012 3.362 1.255 1.954 2.487 3.447 4.204 4.437 1.72.99 3.867 1.444 6.892 1.444h7.156c8.18 0 14.811-6.632 14.811-14.812v-14.31a4.078 4.078 0 00-7.155-2.676v-.903a4.078 4.078 0 00-7.156-2.675v-.902a4.078 4.078 0 00-7.156-2.676z"/></mask><path fill-rule="evenodd" clip-rule="evenodd" d="M22.791 2.29c-5.652 0-10.233 4.58-10.233 10.233 0 2.093.627 4.037 1.705 5.658l.277.416-.833.554-.277-.416a11.184 11.184 0 01-1.872-6.212c0-6.205 5.03-11.234 11.233-11.234 6.204 0 11.234 5.03 11.234 11.234 0 2.296-.69 4.432-1.873 6.212l-.277.416-.833-.554.277-.416a10.183 10.183 0 001.706-5.659c0-5.651-4.582-10.233-10.234-10.233zm0 8.944a3.078 3.078 0 00-3.077 3.077v26.095c0 .563-.13 1.119-.382 1.623-1.109 2.229-4.077 2.713-5.837.953l-5.24-5.241A3.078 3.078 0 103.9 42.093l.016.016.014.017c5.222 6.242 8.088 11.183 10.226 14.87.713 1.23 1.345 2.32 1.957 3.272 1.226 1.908 2.352 3.24 3.863 4.111 1.509.87 3.46 1.31 6.392 1.31h7.156c7.628 0 13.811-6.183 13.811-13.81V37.566a3.078 3.078 0 00-6.155 0v.536h-1v-4.114a3.078 3.078 0 00-6.156 0v4.079h-1v-7.655a3.078 3.078 0 00-6.156 0v7.655h-1V14.312c0-1.7-1.378-3.078-3.078-3.078zm4.078 16.502V14.311a4.078 4.078 0 10-8.155 0v26.095a2.644 2.644 0 01-4.512 1.869l-5.24-5.241a4.078 4.078 0 00-5.784 5.75c5.151 6.16 7.95 10.985 10.083 14.663.725 1.25 1.374 2.368 2.012 3.362 1.255 1.954 2.487 3.447 4.204 4.437 1.72.99 3.867 1.444 6.892 1.444h7.156c8.18 0 14.811-6.632 14.811-14.812v-14.31a4.078 4.078 0 00-7.155-2.676v-.903a4.078 4.078 0 00-7.156-2.675v-.902a4.078 4.078 0 00-7.156-2.676z" fill="#000"/><path d="M14.263 18.18l1.082-.719-1.082.72zm.277.417l.72 1.083 1.082-.72-.72-1.083-1.082.72zm-.833.554l-1.083.72.72 1.082 1.083-.72-.72-1.082zm-.277-.416l-1.082.72 1.082-.72zm18.722 0l-1.083-.72 1.083.72zm-.277.416l-.72 1.082 1.083.72.72-1.082-1.083-.72zm-.833-.554l-1.082-.72-.72 1.083 1.083.72.72-1.083zm.277-.416l-1.082-.72 1.082.72zM19.332 42.029l1.164.579-1.164-.58zm-5.837.953l-.919.92.92-.92zm-5.24-5.241l-.92.92.92-.92zm-4.354 0l-.919-.92.92.92zm0 4.352l.92-.919-.92.92zm.016.016l.997-.834-.037-.044-.04-.041-.92.92zm.014.017l.997-.834-.997.834zm10.226 14.87l1.124-.653-1.124.653zm1.957 3.272l-1.094.703 1.094-.703zm3.863 4.111l.649-1.126-.65 1.126zM41.18 38.103v1.3h1.3v-1.3h-1.3zm-1 0h-1.3v1.3h1.3v-1.3zm-6.156-.036v1.3h1.3v-1.3h-1.3zm-1 0h-1.3v1.3h1.3v-1.3zm-6.156 0v1.3h1.3v-1.3h-1.3zm-1 0h-1.3v1.3h1.3v-1.3zm1-10.33h-1.3v3.475l2.281-2.622-.98-.854zm-8.432 13.847l1.164.578-1.164-.578zm-4.235.69l-.919.92.92-.92zm-5.24-5.24l.918-.92-.919.92zm-5.768 0l-.919-.92.92.92zm-.016 5.75l.997-.834-.034-.041-.039-.039-.924.914zM13.26 57.447l-1.124.652 1.124-.652zm2.012 3.362l-1.094.702 1.094-.702zm4.204 4.437l.65-1.127-.65 1.127zM41.18 34.892h-1.3v3.475l2.28-2.622-.98-.853zm-7.156-3.578h-1.3v3.475l2.28-2.622-.98-.853zM13.858 12.523c0-4.934 4-8.934 8.933-8.934V.99c-6.37 0-11.533 5.164-11.533 11.534h2.6zm1.487 4.938a8.884 8.884 0 01-1.487-4.938h-2.6c0 2.356.708 4.55 1.922 6.378l2.165-1.44zm.277.416l-.277-.416-2.165 1.44.277.416 2.165-1.44zm-1.195 2.356l.833-.553-1.44-2.165-.833.553 1.44 2.165zm-2.08-.779l.277.417 2.166-1.44-.277-.416-2.165 1.44zm-2.09-6.931c0 2.56.77 4.945 2.09 6.931l2.166-1.44a9.883 9.883 0 01-1.655-5.491h-2.6zM22.792-.011C15.87-.01 10.258 5.6 10.258 12.523h2.6c0-5.487 4.447-9.934 9.933-9.934v-2.6zm12.534 12.534C35.325 5.6 29.712-.011 22.79-.011v2.6c5.486 0 9.933 4.447 9.933 9.934h2.6zm-2.09 6.931a12.483 12.483 0 002.09-6.931h-2.6c0 2.032-.61 3.919-1.656 5.492l2.165 1.44zm-.277.417l.276-.417-2.165-1.44-.276.417 2.165 1.44zm-2.635-.191l.832.553 1.44-2.165-.833-.553-1.44 2.165zm-.086-2.219l-.277.416 2.165 1.44.277-.416-2.165-1.44zm1.488-4.938a8.883 8.883 0 01-1.488 4.938l2.165 1.44a11.483 11.483 0 001.922-6.378h-2.6zM22.79 3.589c4.934 0 8.933 4 8.933 8.934h2.6C34.323 6.153 29.16.989 22.79.989v2.6zm-1.777 10.722c0-.982.796-1.777 1.777-1.777v-2.6a4.378 4.378 0 00-4.377 4.377h2.6zm0 26.095V14.311h-2.6v26.095h2.6zm-.518 2.202c.34-.684.518-1.438.518-2.202h-2.6c0 .362-.084.72-.246 1.044l2.328 1.158zm-7.92 1.293c2.388 2.389 6.416 1.731 7.92-1.293l-2.328-1.158a2.343 2.343 0 01-3.753.613L12.575 43.9zm-5.241-5.24l5.241 5.24 1.838-1.838-5.24-5.241-1.84 1.838zm-2.514 0a1.778 1.778 0 012.514 0l1.838-1.84a4.378 4.378 0 00-6.19 0l1.838 1.84zm0 2.513a1.778 1.778 0 010-2.514l-1.839-1.838a4.378 4.378 0 000 6.19l1.839-1.838zm.015.016l-.015-.016-1.839 1.839.016.016 1.838-1.839zm.092.102l-.014-.017-1.994 1.668.014.018 1.994-1.669zM15.28 56.343c-2.147-3.703-5.057-8.722-10.353-15.05L2.934 42.96c5.15 6.155 7.97 11.018 10.098 14.688l2.25-1.305zm1.927 3.222c-.593-.922-1.21-1.985-1.927-3.222l-2.249 1.305c.71 1.223 1.357 2.34 1.988 3.323l2.188-1.405zm3.418 3.688c-1.24-.715-2.23-1.839-3.418-3.688l-2.188 1.406c1.264 1.967 2.528 3.509 4.308 4.535l1.298-2.253zm5.743 1.136c-2.813 0-4.508-.424-5.743-1.136l-1.298 2.252c1.782 1.027 3.988 1.485 7.041 1.485v-2.6zm7.156 0h-7.156v2.6h7.156v-2.6zm12.511-12.51c0 6.91-5.601 12.51-12.511 12.51v2.6c8.346 0 15.111-6.765 15.111-15.11h-2.6zm0-14.312v14.311h2.6v-14.31h-2.6zm-1.778-1.778c.982 0 1.778.796 1.778 1.778h2.6a4.378 4.378 0 00-4.378-4.378v2.6zm-1.778 1.778c0-.982.796-1.778 1.778-1.778v-2.6a4.378 4.378 0 00-4.378 4.378h2.6zm0 .036v-.036h-2.6v.036h2.6zm0 .5v-.5h-2.6v.5h2.6zm-2.3 1.3h1v-2.6h-1v2.6zm-1.3-1.8v.5h2.6v-.5h-2.6zm0-.036v.036h2.6v-.036h-2.6zm0-3.578v3.578h2.6V33.99h-2.6zm-1.777-1.777c.981 0 1.777.795 1.777 1.777h2.6a4.378 4.378 0 00-4.377-4.377v2.6zm-1.778 1.777c0-.982.796-1.777 1.778-1.777v-2.6a4.378 4.378 0 00-4.378 4.377h2.6zm0 3.578V33.99h-2.6v3.578h2.6zm0 .5v-.5h-2.6v.5h2.6zm-2.3 1.3h1v-2.6h-1v2.6zm-1.3-1.8v.5h2.6v-.5h-2.6zm0-3.578v3.578h2.6V33.99h-2.6zm0-3.577v3.577h2.6v-3.577h-2.6zm-1.778-1.778c.982 0 1.778.796 1.778 1.777h2.6a4.378 4.378 0 00-4.378-4.377v2.6zm-1.778 1.777c0-.981.796-1.777 1.778-1.777v-2.6a4.378 4.378 0 00-4.378 4.378h2.6zm0 7.156v-7.155h-2.6v7.155h2.6zm0 .5v-.5h-2.6v.5h2.6zm-2.3 1.3h1v-2.6h-1v2.6zm-1.3-1.8v.5h2.6v-.5h-2.6zm0-7.155v7.155h2.6v-7.155h-2.6zm0-16.1v16.1h2.6v-16.1h-2.6zm-1.778-1.778c.982 0 1.778.795 1.778 1.777h2.6a4.378 4.378 0 00-4.378-4.377v2.6zm5.378 15.202V14.311h-2.6v13.425h2.6zm0-13.425a5.378 5.378 0 00-5.378-5.377v2.6a2.778 2.778 0 012.778 2.777h2.6zM22.79 8.934a5.378 5.378 0 00-5.377 5.377h2.6a2.778 2.778 0 012.777-2.777v-2.6zm-5.377 5.377v26.095h2.6V14.311h-2.6zm0 26.095c0 .208-.049.413-.14.598l2.327 1.159a3.943 3.943 0 00.413-1.757h-2.6zm-.14.598c-.41.822-1.504 1-2.152.352l-1.839 1.838c1.905 1.905 5.118 1.38 6.318-1.032l-2.328-1.158zm-2.152.352L9.88 36.114l-1.838 1.839 5.241 5.241 1.839-1.838zM9.88 36.114a5.378 5.378 0 00-7.605 0l1.839 1.839a2.778 2.778 0 013.928 0l1.838-1.839zm-7.605 0a5.378 5.378 0 00-.021 7.585l1.848-1.829a2.778 2.778 0 01.012-3.917l-1.839-1.839zm-.094 7.504c5.078 6.073 7.832 10.82 9.956 14.481l2.249-1.304C12.242 53.1 9.4 48.198 4.176 41.95L2.18 43.618zM12.137 58.1c.72 1.244 1.385 2.39 2.042 3.412l2.187-1.405c-.618-.963-1.251-2.054-1.98-3.31l-2.25 1.303zm2.042 3.412c1.293 2.014 2.662 3.716 4.65 4.86l1.298-2.252c-1.448-.834-2.544-2.118-3.76-4.013l-2.188 1.405zm4.65 4.86c1.992 1.149 4.394 1.619 7.54 1.619v-2.6c-2.905 0-4.797-.438-6.242-1.27l-1.299 2.252zm7.54 1.619h7.156v-2.6h-7.156v2.6zm7.156 0c8.898 0 16.111-7.214 16.111-16.112h-2.6c0 7.462-6.05 13.511-13.511 13.511v2.6zm16.111-16.112v-14.31h-2.6v14.31h2.6zm0-14.31a5.378 5.378 0 00-5.378-5.379v2.6a2.778 2.778 0 012.778 2.778h2.6zm-5.378-5.379c-1.62 0-3.074.719-4.058 1.85l1.961 1.706a2.768 2.768 0 012.097-.956v-2.6zm-1.778 2.703v-.903h-2.6v.903h2.6zm0-.903a5.378 5.378 0 00-5.377-5.377v2.6a2.778 2.778 0 012.777 2.777h2.6zm-5.377-5.377a5.37 5.37 0 00-4.059 1.849l1.962 1.706a2.768 2.768 0 012.097-.956v-2.6zm-1.778 2.702v-.902h-2.6v.902h2.6zm0-.902a5.378 5.378 0 00-5.378-5.378v2.6a2.778 2.778 0 012.778 2.777h2.6zm-5.378-5.378c-1.62 0-3.075.718-4.059 1.85l1.962 1.706a2.768 2.768 0 012.097-.956v-2.6z" fill="#000" mask="url(#a)"/></svg>