<svg width="50" height="68" viewBox="0 0 50 68" fill="none" xmlns="http://www.w3.org/2000/svg">
<ellipse cx="22.4844" cy="12.082" rx="11" ry="10.5" fill="#F9C859"/>
<path d="M33.9636 66.582H26.7032C14.6113 66.582 17.6273 59.4853 3.54764 43.0348C2.12995 41.6491 2.12995 39.4024 3.54764 38.0166C4.96532 36.6309 7.26383 36.6309 8.68151 38.0166L13.9994 43.2147C15.5403 44.7208 18.1383 44.3061 19.1089 42.3992C19.3285 41.9678 19.4428 41.4926 19.4428 41.0108V15.1304C19.4428 13.1707 21.0681 11.582 23.073 11.582C25.0779 11.582 26.7032 13.1707 26.7032 15.1304V31.0982C26.7032 29.1384 28.3285 27.5498 30.3334 27.5498C32.3383 27.5498 33.9636 29.1384 33.9636 31.0982V34.6465C33.9636 32.6868 35.5889 31.0982 37.5938 31.0982C39.5987 31.0982 41.224 32.6868 41.224 34.6465V38.1949C41.224 36.2352 42.8493 34.6465 44.8542 34.6465C46.8591 34.6465 48.4844 36.2352 48.4844 38.1949V52.3885C48.4844 60.2274 41.9832 66.582 33.9636 66.582Z" fill="white"/>
<mask id="path-3-outside-1_403_4423" maskUnits="userSpaceOnUse" x="0" y="-0.710938" width="50" height="69" fill="black">
<rect fill="white" y="-0.710938" width="50" height="69"/>
<path fill-rule="evenodd" clip-rule="evenodd" d="M22.7911 2.28906C17.1394 2.28906 12.5577 6.87072 12.5577 12.5225C12.5577 14.6155 13.1855 16.5603 14.263 18.1808L14.5398 18.5972L13.7071 19.1509L13.4302 18.7345C12.2471 16.955 11.5577 14.8185 11.5577 12.5225C11.5577 6.31843 16.5871 1.28906 22.7911 1.28906C28.9951 1.28906 34.0245 6.31843 34.0245 12.5225C34.0245 14.8185 33.3351 16.955 32.152 18.7345L31.8751 19.1509L31.0424 18.5972L31.3192 18.1808C32.3967 16.5603 33.0245 14.6155 33.0245 12.5225C33.0245 6.87072 28.4429 2.28906 22.7911 2.28906ZM22.7914 11.2336C21.0916 11.2336 19.7136 12.6116 19.7136 14.3114V40.4063C19.7136 40.9694 19.5831 41.5248 19.3323 42.0289C18.2234 44.2576 15.2555 44.7422 13.4953 42.982L8.25414 37.7409C7.05218 36.5389 5.10342 36.5389 3.90147 37.7409C2.69951 38.9428 2.69951 40.8916 3.90147 42.0935L3.91716 42.1092L3.93141 42.1263C9.15338 48.3682 12.0188 53.3091 14.1566 56.9956C14.8699 58.2255 15.5021 59.3158 16.1139 60.2681C17.3398 62.1764 18.4665 63.5088 19.9768 64.3791C21.4857 65.2485 23.4362 65.6895 26.3692 65.6895H33.5249C41.1526 65.6895 47.3361 59.506 47.3361 51.8783V37.5671C47.3361 35.8673 45.9581 34.4893 44.2583 34.4893C42.5584 34.4893 41.1805 35.8673 41.1805 37.5671V37.6029V38.1029H40.1805V37.6029V37.5671V33.9893C40.1805 32.2895 38.8025 30.9115 37.1027 30.9115C35.4028 30.9115 34.0248 32.2895 34.0248 33.9893V37.5671V38.0671H33.0249V37.5671V33.9893V30.4115C33.0249 28.7117 31.6469 27.3337 29.947 27.3337C28.2472 27.3337 26.8692 28.7117 26.8692 30.4115V37.5671V38.0671H25.8692V37.5671V30.4115V14.3114C25.8692 12.6116 24.4913 11.2336 22.7914 11.2336ZM26.8692 27.7364V14.3114C26.8692 12.0593 25.0436 10.2336 22.7914 10.2336C20.5393 10.2336 18.7136 12.0593 18.7136 14.3114V40.4063C18.7136 40.8148 18.6189 41.2177 18.437 41.5835C17.6325 43.2003 15.4794 43.5519 14.2024 42.2749L8.96125 37.0338C7.36876 35.4413 4.78684 35.4413 3.19436 37.0338C1.60729 38.6208 1.6019 41.1906 3.17819 42.7844C8.32947 48.9445 11.1275 53.7687 13.2611 57.4473C13.9862 58.6976 14.6346 59.8155 15.2726 60.8086C16.5278 62.7626 17.7597 64.2557 19.4775 65.2455C21.1967 66.2361 23.3437 66.6895 26.3692 66.6895H33.5249C41.7049 66.6895 48.3361 60.0583 48.3361 51.8783V37.5671C48.3361 35.315 46.5104 33.4893 44.2583 33.4893C43.0297 33.4893 41.9281 34.0326 41.1805 34.892V33.9893C41.1805 31.7372 39.3548 29.9115 37.1027 29.9115C35.8741 29.9115 34.7725 30.4548 34.0248 31.3142V30.4115C34.0248 28.1594 32.1992 26.3337 29.947 26.3337C28.7185 26.3337 27.6169 26.877 26.8692 27.7364Z"/>
</mask>
<path fill-rule="evenodd" clip-rule="evenodd" d="M22.7911 2.28906C17.1394 2.28906 12.5577 6.87072 12.5577 12.5225C12.5577 14.6155 13.1855 16.5603 14.263 18.1808L14.5398 18.5972L13.7071 19.1509L13.4302 18.7345C12.2471 16.955 11.5577 14.8185 11.5577 12.5225C11.5577 6.31843 16.5871 1.28906 22.7911 1.28906C28.9951 1.28906 34.0245 6.31843 34.0245 12.5225C34.0245 14.8185 33.3351 16.955 32.152 18.7345L31.8751 19.1509L31.0424 18.5972L31.3192 18.1808C32.3967 16.5603 33.0245 14.6155 33.0245 12.5225C33.0245 6.87072 28.4429 2.28906 22.7911 2.28906ZM22.7914 11.2336C21.0916 11.2336 19.7136 12.6116 19.7136 14.3114V40.4063C19.7136 40.9694 19.5831 41.5248 19.3323 42.0289C18.2234 44.2576 15.2555 44.7422 13.4953 42.982L8.25414 37.7409C7.05218 36.5389 5.10342 36.5389 3.90147 37.7409C2.69951 38.9428 2.69951 40.8916 3.90147 42.0935L3.91716 42.1092L3.93141 42.1263C9.15338 48.3682 12.0188 53.3091 14.1566 56.9956C14.8699 58.2255 15.5021 59.3158 16.1139 60.2681C17.3398 62.1764 18.4665 63.5088 19.9768 64.3791C21.4857 65.2485 23.4362 65.6895 26.3692 65.6895H33.5249C41.1526 65.6895 47.3361 59.506 47.3361 51.8783V37.5671C47.3361 35.8673 45.9581 34.4893 44.2583 34.4893C42.5584 34.4893 41.1805 35.8673 41.1805 37.5671V37.6029V38.1029H40.1805V37.6029V37.5671V33.9893C40.1805 32.2895 38.8025 30.9115 37.1027 30.9115C35.4028 30.9115 34.0248 32.2895 34.0248 33.9893V37.5671V38.0671H33.0249V37.5671V33.9893V30.4115C33.0249 28.7117 31.6469 27.3337 29.947 27.3337C28.2472 27.3337 26.8692 28.7117 26.8692 30.4115V37.5671V38.0671H25.8692V37.5671V30.4115V14.3114C25.8692 12.6116 24.4913 11.2336 22.7914 11.2336ZM26.8692 27.7364V14.3114C26.8692 12.0593 25.0436 10.2336 22.7914 10.2336C20.5393 10.2336 18.7136 12.0593 18.7136 14.3114V40.4063C18.7136 40.8148 18.6189 41.2177 18.437 41.5835C17.6325 43.2003 15.4794 43.5519 14.2024 42.2749L8.96125 37.0338C7.36876 35.4413 4.78684 35.4413 3.19436 37.0338C1.60729 38.6208 1.6019 41.1906 3.17819 42.7844C8.32947 48.9445 11.1275 53.7687 13.2611 57.4473C13.9862 58.6976 14.6346 59.8155 15.2726 60.8086C16.5278 62.7626 17.7597 64.2557 19.4775 65.2455C21.1967 66.2361 23.3437 66.6895 26.3692 66.6895H33.5249C41.7049 66.6895 48.3361 60.0583 48.3361 51.8783V37.5671C48.3361 35.315 46.5104 33.4893 44.2583 33.4893C43.0297 33.4893 41.9281 34.0326 41.1805 34.892V33.9893C41.1805 31.7372 39.3548 29.9115 37.1027 29.9115C35.8741 29.9115 34.7725 30.4548 34.0248 31.3142V30.4115C34.0248 28.1594 32.1992 26.3337 29.947 26.3337C28.7185 26.3337 27.6169 26.877 26.8692 27.7364Z" fill="black"/>
<path d="M14.263 18.1808L15.3455 17.4611L14.263 18.1808ZM14.5398 18.5972L15.2596 19.6798L16.3421 18.96L15.6224 17.8774L14.5398 18.5972ZM13.7071 19.1509L12.6245 19.8707L13.3443 20.9532L14.4268 20.2334L13.7071 19.1509ZM13.4302 18.7345L12.3477 19.4543L13.4302 18.7345ZM32.152 18.7345L31.0694 18.0147L31.0694 18.0147L32.152 18.7345ZM31.8751 19.1509L31.1554 20.2334L32.2379 20.9532L32.9577 19.8707L31.8751 19.1509ZM31.0424 18.5972L29.9599 17.8774L29.2401 18.96L30.3226 19.6798L31.0424 18.5972ZM31.3192 18.1808L30.2367 17.4611L31.3192 18.1808ZM19.3323 42.0289L20.4962 42.608L20.4962 42.608L19.3323 42.0289ZM13.4953 42.982L12.576 43.9013H12.576L13.4953 42.982ZM8.25414 37.7409L7.3349 38.6601L8.25414 37.7409ZM3.90147 37.7409L2.98223 36.8216L3.90147 37.7409ZM3.90147 42.0935L4.82072 41.1743L4.82071 41.1743L3.90147 42.0935ZM3.91716 42.1092L4.91422 41.2751L4.87721 41.2308L4.83642 41.19L3.91716 42.1092ZM3.93141 42.1263L4.92849 41.2921L4.92846 41.2921L3.93141 42.1263ZM14.1566 56.9956L15.2812 56.3434L14.1566 56.9956ZM16.1139 60.2681L15.0202 60.9708H15.0202L16.1139 60.2681ZM19.9768 64.3791L20.6258 63.2527H20.6258L19.9768 64.3791ZM41.1805 38.1029V39.4029H42.4805V38.1029H41.1805ZM40.1805 38.1029H38.8805V39.4029H40.1805V38.1029ZM34.0248 38.0671V39.3671H35.3249V38.0671H34.0248ZM33.0249 38.0671H31.7249V39.3671H33.0249V38.0671ZM26.8692 38.0671V39.3671H28.1692V38.0671H26.8692ZM25.8692 38.0671H24.5692V39.3671H25.8692V38.0671ZM26.8692 27.7364H25.5692V31.2116L27.8501 28.5896L26.8692 27.7364ZM18.437 41.5835L19.6009 42.1625L19.6009 42.1625L18.437 41.5835ZM14.2024 42.2749L13.2831 43.1942H13.2831L14.2024 42.2749ZM8.96125 37.0338L9.88048 36.1145H9.88048L8.96125 37.0338ZM3.19436 37.0338L2.27512 36.1145H2.27512L3.19436 37.0338ZM3.17819 42.7844L4.17545 41.9504L4.14063 41.9088L4.10247 41.8702L3.17819 42.7844ZM13.2611 57.4473L12.1365 58.0995L13.2611 57.4473ZM15.2726 60.8086L14.1788 61.5112L15.2726 60.8086ZM19.4775 65.2455L20.1266 64.1191V64.1191L19.4775 65.2455ZM41.1805 34.892H39.8805V38.3672L42.1613 35.7452L41.1805 34.892ZM34.0248 31.3142H32.7249V34.7894L35.0057 32.1674L34.0248 31.3142ZM13.8577 12.5225C13.8577 7.58869 17.8573 3.58906 22.7911 3.58906V0.989063C16.4214 0.989063 11.2577 6.15275 11.2577 12.5225H13.8577ZM15.3455 17.4611C14.4055 16.0472 13.8577 14.3516 13.8577 12.5225H11.2577C11.2577 14.8794 11.9655 17.0734 13.1804 18.9006L15.3455 17.4611ZM15.6224 17.8774L15.3455 17.4611L13.1804 18.9006L13.4572 19.317L15.6224 17.8774ZM14.4268 20.2334L15.2596 19.6798L13.82 17.5147L12.9873 18.0683L14.4268 20.2334ZM12.3477 19.4543L12.6245 19.8707L14.7896 18.4311L14.5128 18.0147L12.3477 19.4543ZM10.2577 12.5225C10.2577 15.0824 11.0271 17.4682 12.3477 19.4543L14.5128 18.0147C13.467 16.4419 12.8577 14.5546 12.8577 12.5225H10.2577ZM22.7911 -0.0109375C15.8691 -0.0109375 10.2577 5.60046 10.2577 12.5225H12.8577C12.8577 7.0364 17.305 2.58906 22.7911 2.58906V-0.0109375ZM35.3245 12.5225C35.3245 5.60046 29.7131 -0.0109375 22.7911 -0.0109375V2.58906C28.2772 2.58906 32.7245 7.0364 32.7245 12.5225H35.3245ZM33.2345 19.4543C34.5551 17.4682 35.3245 15.0824 35.3245 12.5225H32.7245C32.7245 14.5546 32.1152 16.4419 31.0694 18.0147L33.2345 19.4543ZM32.9577 19.8707L33.2345 19.4543L31.0694 18.0147L30.7926 18.4311L32.9577 19.8707ZM30.3226 19.6798L31.1554 20.2334L32.5949 18.0683L31.7622 17.5147L30.3226 19.6798ZM30.2367 17.4611L29.9599 17.8774L32.125 19.317L32.4018 18.9006L30.2367 17.4611ZM31.7245 12.5225C31.7245 14.3516 31.1768 16.0472 30.2367 17.4611L32.4018 18.9006C33.6167 17.0734 34.3245 14.8794 34.3245 12.5225H31.7245ZM22.7911 3.58906C27.7249 3.58906 31.7245 7.58869 31.7245 12.5225H34.3245C34.3245 6.15275 29.1608 0.989063 22.7911 0.989063V3.58906ZM21.0136 14.3114C21.0136 13.3295 21.8096 12.5336 22.7914 12.5336V9.93357C20.3736 9.93357 18.4136 11.8936 18.4136 14.3114H21.0136ZM21.0136 40.4063V14.3114H18.4136V40.4063H21.0136ZM20.4962 42.608C20.8365 41.924 21.0136 41.1703 21.0136 40.4063H18.4136C18.4136 40.7684 18.3297 41.1256 18.1684 41.4498L20.4962 42.608ZM12.576 43.9013C14.9645 46.2897 18.9916 45.6321 20.4962 42.608L18.1684 41.4498C17.4552 42.8831 15.5465 43.1948 14.4145 42.0628L12.576 43.9013ZM7.3349 38.6601L12.576 43.9013L14.4145 42.0628L9.17338 36.8216L7.3349 38.6601ZM4.82071 38.6601C5.51498 37.9658 6.64062 37.9658 7.3349 38.6601L9.17338 36.8216C7.46374 35.112 4.69187 35.112 2.98223 36.8216L4.82071 38.6601ZM4.82071 41.1743C4.12643 40.48 4.12643 39.3544 4.82071 38.6601L2.98223 36.8216C1.27259 38.5313 1.27259 41.3031 2.98223 43.0128L4.82071 41.1743ZM4.83642 41.19L4.82072 41.1743L2.98221 43.0128L2.99791 43.0285L4.83642 41.19ZM4.92846 41.2921L4.91422 41.2751L2.92011 42.9434L2.93435 42.9605L4.92846 41.2921ZM15.2812 56.3434C13.1336 52.6401 10.2236 47.6214 4.92849 41.2921L2.93432 42.9604C8.08317 49.1149 10.9039 53.9781 13.032 57.6477L15.2812 56.3434ZM17.2077 59.5655C16.6151 58.643 15.9985 57.5804 15.2812 56.3434L13.032 57.6477C13.7412 58.8706 14.3892 59.9885 15.0202 60.9708L17.2077 59.5655ZM20.6258 63.2527C19.3854 62.5379 18.3955 61.4145 17.2077 59.5655L15.0202 60.9708C16.2841 62.9383 17.5476 64.4797 19.3278 65.5055L20.6258 63.2527ZM26.3692 64.3895C23.5564 64.3895 21.8613 63.9646 20.6258 63.2527L19.3278 65.5055C21.11 66.5324 23.3159 66.9895 26.3692 66.9895V64.3895ZM33.5249 64.3895H26.3692V66.9895H33.5249V64.3895ZM46.0361 51.8783C46.0361 58.7881 40.4346 64.3895 33.5249 64.3895V66.9895C41.8705 66.9895 48.6361 60.224 48.6361 51.8783H46.0361ZM46.0361 37.5671V51.8783H48.6361V37.5671H46.0361ZM44.2583 35.7893C45.2401 35.7893 46.0361 36.5852 46.0361 37.5671H48.6361C48.6361 35.1493 46.6761 33.1893 44.2583 33.1893V35.7893ZM42.4805 37.5671C42.4805 36.5852 43.2764 35.7893 44.2583 35.7893V33.1893C41.8405 33.1893 39.8805 35.1493 39.8805 37.5671H42.4805ZM42.4805 37.6029V37.5671H39.8805V37.6029H42.4805ZM42.4805 38.1029V37.6029H39.8805V38.1029H42.4805ZM40.1805 39.4029H41.1805V36.8029H40.1805V39.4029ZM38.8805 37.6029V38.1029H41.4805V37.6029H38.8805ZM38.8805 37.5671V37.6029H41.4805V37.5671H38.8805ZM38.8805 33.9893V37.5671H41.4805V33.9893H38.8805ZM37.1027 32.2115C38.0845 32.2115 38.8805 33.0074 38.8805 33.9893H41.4805C41.4805 31.5715 39.5204 29.6115 37.1027 29.6115V32.2115ZM35.3249 33.9893C35.3249 33.0074 36.1208 32.2115 37.1027 32.2115V29.6115C34.6849 29.6115 32.7249 31.5715 32.7249 33.9893H35.3249ZM35.3249 37.5671V33.9893H32.7249V37.5671H35.3249ZM35.3249 38.0671V37.5671H32.7249V38.0671H35.3249ZM33.0249 39.3671H34.0248V36.7671H33.0249V39.3671ZM31.7249 37.5671V38.0671H34.3249V37.5671H31.7249ZM31.7249 33.9893V37.5671H34.3249V33.9893H31.7249ZM31.7249 30.4115V33.9893H34.3249V30.4115H31.7249ZM29.947 28.6337C30.9289 28.6337 31.7249 29.4296 31.7249 30.4115H34.3249C34.3249 27.9937 32.3648 26.0337 29.947 26.0337V28.6337ZM28.1692 30.4115C28.1692 29.4296 28.9652 28.6337 29.947 28.6337V26.0337C27.5293 26.0337 25.5692 27.9937 25.5692 30.4115H28.1692ZM28.1692 37.5671V30.4115H25.5692V37.5671H28.1692ZM28.1692 38.0671V37.5671H25.5692V38.0671H28.1692ZM25.8692 39.3671H26.8692V36.7671H25.8692V39.3671ZM24.5692 37.5671V38.0671H27.1692V37.5671H24.5692ZM24.5692 30.4115V37.5671H27.1692V30.4115H24.5692ZM24.5692 14.3114V30.4115H27.1692V14.3114H24.5692ZM22.7914 12.5336C23.7733 12.5336 24.5692 13.3295 24.5692 14.3114H27.1692C27.1692 11.8936 25.2092 9.93357 22.7914 9.93357V12.5336ZM28.1692 27.7364V14.3114H25.5692V27.7364H28.1692ZM28.1692 14.3114C28.1692 11.3413 25.7615 8.93357 22.7914 8.93357V11.5336C24.3256 11.5336 25.5692 12.7772 25.5692 14.3114H28.1692ZM22.7914 8.93357C19.8214 8.93357 17.4136 11.3413 17.4136 14.3114H20.0136C20.0136 12.7772 21.2573 11.5336 22.7914 11.5336V8.93357ZM17.4136 14.3114V40.4063H20.0136V14.3114H17.4136ZM17.4136 40.4063C17.4136 40.6138 17.3655 40.8186 17.2731 41.0044L19.6009 42.1625C19.8723 41.6169 20.0136 41.0157 20.0136 40.4063H17.4136ZM17.2731 41.0044C16.8644 41.8258 15.7704 42.0045 15.1216 41.3557L13.2831 43.1942C15.1883 45.0993 18.4007 44.5748 19.6009 42.1625L17.2731 41.0044ZM15.1216 41.3557L9.88048 36.1145L8.04201 37.953L13.2831 43.1942L15.1216 41.3557ZM9.88048 36.1145C7.78032 34.0144 4.37529 34.0144 2.27512 36.1145L4.1136 37.953C5.1984 36.8682 6.95721 36.8682 8.04201 37.953L9.88048 36.1145ZM2.27512 36.1145C0.182066 38.2076 0.174976 41.5966 2.2539 43.6986L4.10247 41.8702C3.02882 40.7847 3.03251 39.0341 4.1136 37.953L2.27512 36.1145ZM2.18093 43.6183C7.25934 49.6913 10.0129 54.438 12.1365 58.0995L14.3856 56.7951C12.2421 53.0993 9.3996 48.1976 4.17545 41.9504L2.18093 43.6183ZM12.1365 58.0995C12.8578 59.3431 13.5218 60.4884 14.1788 61.5112L16.3663 60.106C15.7475 59.1426 15.1146 58.052 14.3856 56.7951L12.1365 58.0995ZM14.1788 61.5112C15.4723 63.5247 16.841 65.2267 18.8285 66.3719L20.1266 64.1191C18.6785 63.2847 17.5834 62.0005 16.3663 60.106L14.1788 61.5112ZM18.8285 66.3719C20.8211 67.52 23.2234 67.9895 26.3692 67.9895V65.3895C23.4639 65.3895 21.5723 64.9522 20.1266 64.1191L18.8285 66.3719ZM26.3692 67.9895H33.5249V65.3895H26.3692V67.9895ZM33.5249 67.9895C42.4228 67.9895 49.6361 60.7763 49.6361 51.8783H47.0361C47.0361 59.3403 40.9869 65.3895 33.5249 65.3895V67.9895ZM49.6361 51.8783V37.5671H47.0361V51.8783H49.6361ZM49.6361 37.5671C49.6361 34.597 47.2283 32.1893 44.2583 32.1893V34.7893C45.7924 34.7893 47.0361 36.033 47.0361 37.5671H49.6361ZM44.2583 32.1893C42.6378 32.1893 41.1836 32.9076 40.1996 34.0388L42.1613 35.7452C42.6725 35.1575 43.4216 34.7893 44.2583 34.7893V32.1893ZM42.4805 34.892V33.9893H39.8805V34.892H42.4805ZM42.4805 33.9893C42.4805 31.0192 40.0727 28.6115 37.1027 28.6115V31.2115C38.6368 31.2115 39.8805 32.4552 39.8805 33.9893H42.4805ZM37.1027 28.6115C35.4822 28.6115 34.028 29.3298 33.044 30.461L35.0057 32.1674C35.5169 31.5797 36.266 31.2115 37.1027 31.2115V28.6115ZM35.3249 31.3142V30.4115H32.7249V31.3142H35.3249ZM35.3249 30.4115C35.3249 27.4414 32.9171 25.0337 29.947 25.0337V27.6337C31.4812 27.6337 32.7249 28.8774 32.7249 30.4115H35.3249ZM29.947 25.0337C28.3266 25.0337 26.8724 25.752 25.8884 26.8832L27.8501 28.5896C28.3613 28.0019 29.1104 27.6337 29.947 27.6337V25.0337Z" fill="black" mask="url(#path-3-outside-1_403_4423)"/>
</svg>
