<svg width="47" height="68" fill="none" xmlns="http://www.w3.org/2000/svg"><path d="M29.227 2.087L5.71 41.656l18.814-4.853-4.704 24.861 23.518-39.569-18.814 4.853 4.703-24.861z" fill="#F9C859"/><path fill-rule="evenodd" clip-rule="evenodd" d="M29.585 1l-.527 2.785-4.557 24.087 18.051-4.656 1.175-.303-.62 1.043L19.59 63.523l-1.448 2.437.527-2.785 4.557-24.087-18.052 4.656L4 44.048l.62-1.043L28.137 3.436 29.585 1zM6.099 42.474l17.64-4.55.762-.197-.146.774-4.177 22.076 21.45-36.09-17.64 4.55-.762.197.146-.774 4.177-22.077-21.45 36.09z" fill="#7C4DFF"/><path d="M29.058 3.785l1.474.278-1.474-.278zM29.585 1l1.474.279L28.295.234l1.29.766zM24.5 27.872l-1.474-.279-.44 2.322 2.289-.59-.375-1.453zm18.051-4.656l.375 1.452-.375-1.452zm1.175-.303l1.29.766 1.858-3.127-3.523.909.375 1.452zm-.62 1.043l-1.29-.767 1.29.767zM19.59 63.523l-1.29-.766 1.29.766zm-1.448 2.437l-1.474-.28 2.763 1.046-1.29-.766zm.527-2.785l-1.474-.279 1.474.279zm4.557-24.087l1.474.278.439-2.321-2.288.59.375 1.453zM5.174 43.745L4.8 42.292l.374 1.453zM4 44.048l-1.29-.767L.853 46.41l3.523-.909L4 44.048zm.62-1.043l-1.29-.766 1.29.766zM28.137 3.436l1.29.767-1.29-.767zm-4.399 34.488l-.374-1.453.374 1.453zm-17.64 4.55l-1.289-.767-1.858 3.128 3.522-.91-.374-1.451zm18.403-4.747l1.474.279.439-2.322-2.288.59.375 1.453zm-.146.774l1.473.279-1.473-.28zm-4.177 22.076l-1.474-.279 2.763 1.046-1.29-.767zm21.45-36.09l1.29.767 1.858-3.128-3.523.909.375 1.452zm-17.64 4.55l.375 1.453-.375-1.453zm-.762.197l-1.474-.28-.44 2.322 2.288-.59-.374-1.452zm.146-.774l1.474.279-1.474-.28zm4.177-22.077l1.474.28-2.764-1.046 1.29.766zm2.983-2.32l.527-2.784L28.11.72l-.527 2.785 2.948.557zm-4.557 24.088l4.557-24.088-2.948-.557-4.557 24.087 2.948.558zm16.203-6.388L24.126 26.42l.75 2.905 18.051-4.656-.75-2.905zm1.174-.303l-1.174.303.749 2.905 1.174-.302-.749-2.905zm1.045 3.262l.62-1.043-2.58-1.532-.62 1.042 2.58 1.533zM20.879 64.29l23.518-39.57-2.58-1.532L18.3 62.758l2.58 1.533zm-1.448 2.436l1.448-2.436-2.579-1.533-1.448 2.436 2.58 1.533zm-2.236-3.83l-.527 2.785 2.948.557.526-2.784-2.947-.558zm4.557-24.087l-4.557 24.087 2.947.558L24.7 39.367l-2.948-.557zM5.549 45.197L23.6 40.541l-.749-2.905L4.8 42.292l.749 2.905zm-1.174.303l1.174-.303-.75-2.905-1.174.303.75 2.905zM3.33 42.239l-.62 1.042 2.58 1.533.619-1.043L3.33 42.24zm23.518-39.57L3.33 42.24l2.58 1.53L29.426 4.203 26.848 2.67zM28.294.235L26.847 2.67l2.58 1.533 1.447-2.437L28.295.234zm-4.93 36.235l-17.64 4.55.75 2.905 17.64-4.55-.75-2.905zm.762-.197l-.762.197.75 2.905.762-.197-.75-2.905zm1.702 2.505l.147-.773-2.948-.558-.146.774 2.947.557zm-4.176 22.077l4.176-22.077-2.947-.557-4.177 22.076 2.948.558zM40.338 23.72l-21.45 36.09 2.58 1.533 21.45-36.09-2.58-1.533zm-15.975 6.768l17.64-4.55-.75-2.904-17.64 4.55.75 2.904zm-.763.197l.763-.197-.75-2.905-.762.197.75 2.905zm-1.702-2.505l-.146.774 2.948.558.146-.774-2.948-.558zm4.177-22.077L21.898 28.18l2.948.558 4.177-22.077-2.948-.558zM7.388 43.24l21.45-36.09-2.579-1.533-21.45 36.09 2.58 1.533z" fill="#000"/></svg>