<svg width="81" height="68" fill="none" xmlns="http://www.w3.org/2000/svg"><path d="M29.145 48.75H49.53M2.108 44.226h4.438v-8.777H2.187" stroke="#000" stroke-width="3" stroke-miterlimit="3.864"/><path fill-rule="evenodd" clip-rule="evenodd" d="M.71 20.188h26.07V14.46l12.49 9.677-12.49 10.07v-5.43H.508" fill="#F9C859"/><path d="M.71 20.188h26.07V14.46l12.49 9.677-12.49 10.07v-5.43H.508m14.01 33.485c4.401 0 7.97-3.529 7.97-7.881 0-4.353-3.569-7.881-7.97-7.881-4.402 0-7.97 3.528-7.97 7.88 0 4.353 3.568 7.882 7.97 7.882zm49.296 0c4.401 0 7.97-3.529 7.97-7.881 0-4.353-3.569-7.881-7.97-7.881-4.402 0-7.97 3.528-7.97 7.88 0 4.353 3.568 7.882 7.97 7.882z" stroke="#000" stroke-width="3" stroke-miterlimit="3.864"/><path d="M14.509 56.408c1.135 0 2.055-.91 2.055-2.032 0-1.122-.92-2.032-2.055-2.032-1.135 0-2.055.91-2.055 2.032 0 1.122.92 2.032 2.055 2.032zm49.296 0c1.135 0 2.055-.91 2.055-2.032 0-1.122-.92-2.032-2.055-2.032-1.135 0-2.055.91-2.055 2.032 0 1.122.92 2.032 2.055 2.032zm8.186-3.001l6.578-5.487V31.776l-12.172-17.96H49.49" stroke="#000" stroke-width="3" stroke-miterlimit="3.864"/><path d="M78.655 42.864h-5.563v-5.47h5.515m.005-4.839H54.93m-.383 11.389V14.461" stroke="#000" stroke-width="3" stroke-miterlimit="3.864"/><path d="M56.018 42.57h-6.206" stroke="#000" stroke-width="3"/><path d="M54.393 18.992h15.531M23.191 53.96h33.283m-49.939.002L1.543 52.59V4.594h47.85V49.71" stroke="#000" stroke-width="3" stroke-miterlimit="3.864"/></svg>