<svg width="60" height="68" fill="none" xmlns="http://www.w3.org/2000/svg"><circle cx="43.546" cy="52.148" r="7.148" fill="#F9C859"/><path d="M49.921 9.492l.031.036.033.033 8.06 8.06V66.5h-50v-65H42.87l7.052 7.992z" stroke="#000" stroke-width="3"/><path stroke="#000" stroke-width="3" d="M2.046 7.5h6v59h-6z"/><path fill="#000" d="M16.546 21h15v3h-15zm0 6h27v3h-27zm0 6h27v3h-27zm0 6h16v3h-16zm0 6h8v3h-8zm0 11h10v3h-10zm25.121-6l3.949 3.948-2.121 2.122-3.95-3.948z"/><path fill="#000" d="M46.394 48.925l-3.949 3.948 2.121 2.121 3.95-3.948z"/><path d="M43.546 2v15h14" stroke="#000" stroke-width="3"/></svg>