<svg width="59" height="68" fill="none" xmlns="http://www.w3.org/2000/svg"><path d="M43.129 59.61c4.134 0 7.485-3.36 7.485-7.506 0-4.146-3.351-7.506-7.485-7.506s-7.485 3.36-7.485 7.506c0 4.146 3.35 7.507 7.485 7.507z" fill="#F9C859"/><path d="M16.27 22.112h14.974M16.27 28.267H42.7M16.27 34.44h26.432M16.27 40.636h15.851M16.27 46.815h7.926M5.274 7.507H1.761l.01 58.75h4.546m9.953-8.913h9.983" stroke="#000" stroke-width="3" stroke-miterlimit="3.864"/><path clip-rule="evenodd" d="M57.225 66.272v-51.16L45.275 1.768H7.031v64.505" stroke="#000" stroke-width="3" stroke-miterlimit="3.864"/><path d="M43.115 2.305v14.46h13.31" stroke="#000" stroke-width="3"/><path d="M40.267 51.217l2.544 2.551 3.871-3.882" stroke="#000" stroke-width="3" stroke-miterlimit="3.864"/></svg>