<svg width="59" height="68" viewBox="0 0 59 68" fill="none" xmlns="http://www.w3.org/2000/svg">
<path d="M43.1286 59.6106C47.2625 59.6106 50.6137 56.2499 50.6137 52.1042C50.6137 47.9584 47.2625 44.5977 43.1286 44.5977C38.9947 44.5977 35.6436 47.9584 35.6436 52.1042C35.6436 56.2499 38.9947 59.6106 43.1286 59.6106Z" fill="#F9C859"/>
<path d="M16.2705 22.1123H31.244" stroke="black" stroke-width="3" stroke-miterlimit="3.8637"/>
<path d="M16.2705 28.2666H42.6998" stroke="black" stroke-width="3" stroke-miterlimit="3.8637"/>
<path d="M16.2705 34.4404H42.7022" stroke="black" stroke-width="3" stroke-miterlimit="3.8637"/>
<path d="M16.2705 40.6357H32.1213" stroke="black" stroke-width="3" stroke-miterlimit="3.8637"/>
<path d="M16.2705 46.8154L24.1959 46.8154" stroke="black" stroke-width="3" stroke-miterlimit="3.8637"/>
<path d="M5.27447 7.50684L1.76123 7.50791L1.77038 66.2573H6.31693" stroke="black" stroke-width="3" stroke-miterlimit="3.8637"/>
<path d="M16.2705 57.3438H26.2534" stroke="black" stroke-width="3" stroke-miterlimit="3.8637"/>
<path fill-rule="evenodd" clip-rule="evenodd" d="M57.2253 66.2725V15.1126L45.2751 1.7666H7.03125V66.2725" stroke="black" stroke-width="3" stroke-miterlimit="3.8637"/>
<path d="M43.1147 2.30469V16.7656H56.4252" stroke="black" stroke-width="3"/>
<path d="M40.2666 51.2169L42.8111 53.7681L46.6824 49.8857" stroke="black" stroke-width="3" stroke-miterlimit="3.8637"/>
</svg>
