<svg width="31" height="19" viewBox="0 0 31 19" fill="none" xmlns="http://www.w3.org/2000/svg">
<path d="M5.5631 1.00032C4.9963 0.99958 2.72821 1.00036 1.0269 1.00032C0.459854 7.76741 8.96547 19.0444 16.3366 17.9167C18.0696 17.6516 15.7698 13.4047 18.0379 12.8409C19.8523 12.3898 22.9518 16.0372 24.2749 17.9167C25.976 18.1047 28.2445 17.9155 29.9454 17.9167C30.5124 16.789 26.5432 12.8409 23.7081 10.0228C27.1102 6.63851 28.8111 2.1289 29.3781 1.00032C28.2443 1.00039 25.9762 0.999927 24.2749 1.00032C22.3848 3.63192 19.1719 9.17542 17.4708 8.32965C16.5636 7.87857 16.7148 3.06778 16.9038 1.00032H10.0995C12.3676 2.1277 12.9344 10.0228 11.2333 10.0228C9.53226 10.0228 6.13012 2.12802 5.5631 1.00032Z" stroke="white" stroke-width="2" stroke-linejoin="round"/>
</svg>
