<svg width="31" height="19" viewBox="0 0 31 19" fill="none" xmlns="http://www.w3.org/2000/svg">
<path d="M1.0269 1.00032L1.02692 0.000321507C0.507001 0.000310361 0.0738075 0.398714 0.030393 0.916819L1.0269 1.00032ZM5.5631 1.00032L6.45652 0.551098C6.28694 0.21384 5.94189 0.000816047 5.5644 0.000322342L5.5631 1.00032ZM10.0995 1.00032V0.000321507C9.6353 0.000321507 9.23213 0.31979 9.126 0.771715C9.01988 1.22364 9.23872 1.68917 9.65441 1.8958L10.0995 1.00032ZM16.9038 1.00032L17.8997 1.09136C17.9252 0.811481 17.8319 0.533751 17.6424 0.326171C17.4529 0.11859 17.1849 0.000321507 16.9038 0.000321507V1.00032ZM24.2749 1.00032L24.2747 0.000321507C23.9527 0.000396252 23.6505 0.155473 23.4627 0.416966L24.2749 1.00032ZM29.3781 1.00032L30.2717 1.44927C30.4274 1.13926 30.4114 0.770677 30.2293 0.475387C30.0471 0.180097 29.725 0.000299037 29.378 0.000321507L29.3781 1.00032ZM23.7081 10.0228L23.0029 9.31385C22.8141 9.50158 22.708 9.75681 22.7081 10.023C22.7082 10.2892 22.8143 10.5444 23.0031 10.7321L23.7081 10.0228ZM29.9454 17.9167L29.9447 18.9167C30.3229 18.917 30.6689 18.7039 30.8388 18.366L29.9454 17.9167ZM24.2749 17.9167L23.4572 18.4924C23.6222 18.7268 23.88 18.8792 24.1651 18.9107L24.2749 17.9167ZM16.3366 17.9167L16.4878 18.9052L16.3366 17.9167ZM1.02688 2.00032C2.72942 2.00036 4.99583 1.99958 5.56179 2.00032L5.5644 0.000322342C4.99677 -0.000419974 2.72699 0.000357926 1.02692 0.000321507L1.02688 2.00032ZM4.66968 1.44954C4.90364 1.91485 5.96301 4.30244 7.09167 6.40706C7.66606 7.47811 8.29647 8.55245 8.9088 9.37076C9.21323 9.77759 9.53932 10.1568 9.87745 10.4438C10.1868 10.7064 10.6572 11.0228 11.2333 11.0228V9.02281C11.3843 9.02281 11.3762 9.09256 11.1717 8.91898C10.9959 8.76983 10.7727 8.52343 10.5101 8.17251C9.9884 7.4753 9.41389 6.50546 8.85422 5.46185C7.71479 3.33715 6.78958 1.2135 6.45652 0.551098L4.66968 1.44954ZM11.2333 11.0228C11.9008 11.0228 12.3502 10.6145 12.6025 10.2294C12.8459 9.85784 12.9869 9.40267 13.0736 8.96656C13.25 8.07886 13.262 6.95014 13.1499 5.83432C13.037 4.71214 12.7912 3.52842 12.4061 2.52685C12.0432 1.58279 11.4675 0.563553 10.5446 0.104844L9.65441 1.8958C9.86562 2.00078 10.2113 2.3912 10.5393 3.24455C10.8453 4.04039 11.0601 5.04183 11.1599 6.03435C11.2603 7.03323 11.2368 7.94875 11.112 8.57662C11.048 8.89828 10.9719 9.06873 10.9296 9.13338C10.8961 9.18445 10.9911 9.02281 11.2333 9.02281V11.0228ZM10.0995 2.00032C10.1022 2.00032 10.1048 2.00032 10.1075 2.00032C10.1102 2.00032 10.1129 2.00032 10.1156 2.00032C10.1183 2.00032 10.121 2.00032 10.1237 2.00032C10.1264 2.00032 10.1291 2.00032 10.1319 2.00032C10.1346 2.00032 10.1374 2.00032 10.1401 2.00032C10.1429 2.00032 10.1456 2.00032 10.1484 2.00032C10.1512 2.00032 10.154 2.00032 10.1568 2.00032C10.1596 2.00032 10.1624 2.00032 10.1652 2.00032C10.168 2.00032 10.1708 2.00032 10.1736 2.00032C10.1765 2.00032 10.1793 2.00032 10.1822 2.00032C10.185 2.00032 10.1879 2.00032 10.1907 2.00032C10.1936 2.00032 10.1965 2.00032 10.1994 2.00032C10.2023 2.00032 10.2052 2.00032 10.2081 2.00032C10.211 2.00032 10.2139 2.00032 10.2168 2.00032C10.2197 2.00032 10.2227 2.00032 10.2256 2.00032C10.2286 2.00032 10.2315 2.00032 10.2345 2.00032C10.2374 2.00032 10.2404 2.00032 10.2434 2.00032C10.2464 2.00032 10.2494 2.00032 10.2524 2.00032C10.2554 2.00032 10.2584 2.00032 10.2614 2.00032C10.2644 2.00032 10.2674 2.00032 10.2705 2.00032C10.2735 2.00032 10.2765 2.00032 10.2796 2.00032C10.2827 2.00032 10.2857 2.00032 10.2888 2.00032C10.2919 2.00032 10.2949 2.00032 10.298 2.00032C10.3011 2.00032 10.3042 2.00032 10.3073 2.00032C10.3104 2.00032 10.3135 2.00032 10.3167 2.00032C10.3198 2.00032 10.3229 2.00032 10.3261 2.00032C10.3292 2.00032 10.3324 2.00032 10.3355 2.00032C10.3387 2.00032 10.3419 2.00032 10.345 2.00032C10.3482 2.00032 10.3514 2.00032 10.3546 2.00032C10.3578 2.00032 10.361 2.00032 10.3642 2.00032C10.3674 2.00032 10.3706 2.00032 10.3739 2.00032C10.3771 2.00032 10.3803 2.00032 10.3836 2.00032C10.3868 2.00032 10.3901 2.00032 10.3934 2.00032C10.3966 2.00032 10.3999 2.00032 10.4032 2.00032C10.4065 2.00032 10.4097 2.00032 10.413 2.00032C10.4163 2.00032 10.4197 2.00032 10.423 2.00032C10.4263 2.00032 10.4296 2.00032 10.4329 2.00032C10.4363 2.00032 10.4396 2.00032 10.443 2.00032C10.4463 2.00032 10.4497 2.00032 10.453 2.00032C10.4564 2.00032 10.4598 2.00032 10.4632 2.00032C10.4665 2.00032 10.4699 2.00032 10.4733 2.00032C10.4767 2.00032 10.4801 2.00032 10.4836 2.00032C10.487 2.00032 10.4904 2.00032 10.4938 2.00032C10.4973 2.00032 10.5007 2.00032 10.5042 2.00032C10.5076 2.00032 10.5111 2.00032 10.5145 2.00032C10.518 2.00032 10.5215 2.00032 10.5249 2.00032C10.5284 2.00032 10.5319 2.00032 10.5354 2.00032C10.5389 2.00032 10.5424 2.00032 10.5459 2.00032C10.5494 2.00032 10.553 2.00032 10.5565 2.00032C10.56 2.00032 10.5636 2.00032 10.5671 2.00032C10.5707 2.00032 10.5742 2.00032 10.5778 2.00032C10.5813 2.00032 10.5849 2.00032 10.5885 2.00032C10.5921 2.00032 10.5956 2.00032 10.5992 2.00032C10.6028 2.00032 10.6064 2.00032 10.61 2.00032C10.6136 2.00032 10.6173 2.00032 10.6209 2.00032C10.6245 2.00032 10.6281 2.00032 10.6318 2.00032C10.6354 2.00032 10.6391 2.00032 10.6427 2.00032C10.6464 2.00032 10.65 2.00032 10.6537 2.00032C10.6574 2.00032 10.6611 2.00032 10.6647 2.00032C10.6684 2.00032 10.6721 2.00032 10.6758 2.00032C10.6795 2.00032 10.6832 2.00032 10.6869 2.00032C10.6907 2.00032 10.6944 2.00032 10.6981 2.00032C10.7018 2.00032 10.7056 2.00032 10.7093 2.00032C10.7131 2.00032 10.7168 2.00032 10.7206 2.00032C10.7243 2.00032 10.7281 2.00032 10.7319 2.00032C10.7357 2.00032 10.7395 2.00032 10.7432 2.00032C10.747 2.00032 10.7508 2.00032 10.7546 2.00032C10.7584 2.00032 10.7623 2.00032 10.7661 2.00032C10.7699 2.00032 10.7737 2.00032 10.7776 2.00032C10.7814 2.00032 10.7852 2.00032 10.7891 2.00032C10.7929 2.00032 10.7968 2.00032 10.8006 2.00032C10.8045 2.00032 10.8084 2.00032 10.8123 2.00032C10.8161 2.00032 10.82 2.00032 10.8239 2.00032C10.8278 2.00032 10.8317 2.00032 10.8356 2.00032C10.8395 2.00032 10.8434 2.00032 10.8473 2.00032C10.8513 2.00032 10.8552 2.00032 10.8591 2.00032C10.8631 2.00032 10.867 2.00032 10.8709 2.00032C10.8749 2.00032 10.8788 2.00032 10.8828 2.00032C10.8868 2.00032 10.8907 2.00032 10.8947 2.00032C10.8987 2.00032 10.9027 2.00032 10.9067 2.00032C10.9106 2.00032 10.9146 2.00032 10.9186 2.00032C10.9226 2.00032 10.9267 2.00032 10.9307 2.00032C10.9347 2.00032 10.9387 2.00032 10.9427 2.00032C10.9468 2.00032 10.9508 2.00032 10.9549 2.00032C10.9589 2.00032 10.9629 2.00032 10.967 2.00032C10.9711 2.00032 10.9751 2.00032 10.9792 2.00032C10.9833 2.00032 10.9873 2.00032 10.9914 2.00032C10.9955 2.00032 10.9996 2.00032 11.0037 2.00032C11.0078 2.00032 11.0119 2.00032 11.016 2.00032C11.0201 2.00032 11.0242 2.00032 11.0283 2.00032C11.0325 2.00032 11.0366 2.00032 11.0407 2.00032C11.0449 2.00032 11.049 2.00032 11.0531 2.00032C11.0573 2.00032 11.0614 2.00032 11.0656 2.00032C11.0698 2.00032 11.0739 2.00032 11.0781 2.00032C11.0823 2.00032 11.0865 2.00032 11.0906 2.00032C11.0948 2.00032 11.099 2.00032 11.1032 2.00032C11.1074 2.00032 11.1116 2.00032 11.1158 2.00032C11.12 2.00032 11.1243 2.00032 11.1285 2.00032C11.1327 2.00032 11.1369 2.00032 11.1412 2.00032C11.1454 2.00032 11.1496 2.00032 11.1539 2.00032C11.1581 2.00032 11.1624 2.00032 11.1667 2.00032C11.1709 2.00032 11.1752 2.00032 11.1795 2.00032C11.1837 2.00032 11.188 2.00032 11.1923 2.00032C11.1966 2.00032 11.2009 2.00032 11.2052 2.00032C11.2094 2.00032 11.2137 2.00032 11.2181 2.00032C11.2224 2.00032 11.2267 2.00032 11.231 2.00032C11.2353 2.00032 11.2396 2.00032 11.244 2.00032C11.2483 2.00032 11.2526 2.00032 11.257 2.00032C11.2613 2.00032 11.2657 2.00032 11.27 2.00032C11.2744 2.00032 11.2787 2.00032 11.2831 2.00032C11.2875 2.00032 11.2918 2.00032 11.2962 2.00032C11.3006 2.00032 11.305 2.00032 11.3094 2.00032C11.3137 2.00032 11.3181 2.00032 11.3225 2.00032C11.3269 2.00032 11.3313 2.00032 11.3358 2.00032C11.3402 2.00032 11.3446 2.00032 11.349 2.00032C11.3534 2.00032 11.3579 2.00032 11.3623 2.00032C11.3667 2.00032 11.3712 2.00032 11.3756 2.00032C11.38 2.00032 11.3845 2.00032 11.3889 2.00032C11.3934 2.00032 11.3979 2.00032 11.4023 2.00032C11.4068 2.00032 11.4113 2.00032 11.4157 2.00032C11.4202 2.00032 11.4247 2.00032 11.4292 2.00032C11.4337 2.00032 11.4382 2.00032 11.4427 2.00032C11.4472 2.00032 11.4517 2.00032 11.4562 2.00032C11.4607 2.00032 11.4652 2.00032 11.4697 2.00032C11.4742 2.00032 11.4787 2.00032 11.4833 2.00032C11.4878 2.00032 11.4923 2.00032 11.4969 2.00032C11.5014 2.00032 11.506 2.00032 11.5105 2.00032C11.5151 2.00032 11.5196 2.00032 11.5242 2.00032C11.5287 2.00032 11.5333 2.00032 11.5379 2.00032C11.5424 2.00032 11.547 2.00032 11.5516 2.00032C11.5562 2.00032 11.5607 2.00032 11.5653 2.00032C11.5699 2.00032 11.5745 2.00032 11.5791 2.00032C11.5837 2.00032 11.5883 2.00032 11.5929 2.00032C11.5975 2.00032 11.6022 2.00032 11.6068 2.00032C11.6114 2.00032 11.616 2.00032 11.6206 2.00032C11.6253 2.00032 11.6299 2.00032 11.6345 2.00032C11.6392 2.00032 11.6438 2.00032 11.6485 2.00032C11.6531 2.00032 11.6578 2.00032 11.6624 2.00032C11.6671 2.00032 11.6717 2.00032 11.6764 2.00032C11.6811 2.00032 11.6857 2.00032 11.6904 2.00032C11.6951 2.00032 11.6998 2.00032 11.7045 2.00032C11.7091 2.00032 11.7138 2.00032 11.7185 2.00032C11.7232 2.00032 11.7279 2.00032 11.7326 2.00032C11.7373 2.00032 11.742 2.00032 11.7467 2.00032C11.7514 2.00032 11.7562 2.00032 11.7609 2.00032C11.7656 2.00032 11.7703 2.00032 11.775 2.00032C11.7798 2.00032 11.7845 2.00032 11.7892 2.00032C11.794 2.00032 11.7987 2.00032 11.8035 2.00032C11.8082 2.00032 11.813 2.00032 11.8177 2.00032C11.8225 2.00032 11.8272 2.00032 11.832 2.00032C11.8368 2.00032 11.8415 2.00032 11.8463 2.00032C11.8511 2.00032 11.8559 2.00032 11.8606 2.00032C11.8654 2.00032 11.8702 2.00032 11.875 2.00032C11.8798 2.00032 11.8846 2.00032 11.8894 2.00032C11.8942 2.00032 11.899 2.00032 11.9038 2.00032C11.9086 2.00032 11.9134 2.00032 11.9182 2.00032C11.923 2.00032 11.9278 2.00032 11.9326 2.00032C11.9375 2.00032 11.9423 2.00032 11.9471 2.00032C11.9519 2.00032 11.9568 2.00032 11.9616 2.00032C11.9664 2.00032 11.9713 2.00032 11.9761 2.00032C11.981 2.00032 11.9858 2.00032 11.9907 2.00032C11.9955 2.00032 12.0004 2.00032 12.0052 2.00032C12.0101 2.00032 12.015 2.00032 12.0198 2.00032C12.0247 2.00032 12.0296 2.00032 12.0344 2.00032C12.0393 2.00032 12.0442 2.00032 12.0491 2.00032C12.054 2.00032 12.0588 2.00032 12.0637 2.00032C12.0686 2.00032 12.0735 2.00032 12.0784 2.00032C12.0833 2.00032 12.0882 2.00032 12.0931 2.00032C12.098 2.00032 12.1029 2.00032 12.1078 2.00032C12.1127 2.00032 12.1177 2.00032 12.1226 2.00032C12.1275 2.00032 12.1324 2.00032 12.1373 2.00032C12.1423 2.00032 12.1472 2.00032 12.1521 2.00032C12.157 2.00032 12.162 2.00032 12.1669 2.00032C12.1719 2.00032 12.1768 2.00032 12.1817 2.00032C12.1867 2.00032 12.1916 2.00032 12.1966 2.00032C12.2015 2.00032 12.2065 2.00032 12.2115 2.00032C12.2164 2.00032 12.2214 2.00032 12.2263 2.00032C12.2313 2.00032 12.2363 2.00032 12.2412 2.00032C12.2462 2.00032 12.2512 2.00032 12.2562 2.00032C12.2611 2.00032 12.2661 2.00032 12.2711 2.00032C12.2761 2.00032 12.2811 2.00032 12.2861 2.00032C12.291 2.00032 12.296 2.00032 12.301 2.00032C12.306 2.00032 12.311 2.00032 12.316 2.00032C12.321 2.00032 12.326 2.00032 12.331 2.00032C12.3361 2.00032 12.3411 2.00032 12.3461 2.00032C12.3511 2.00032 12.3561 2.00032 12.3611 2.00032C12.3661 2.00032 12.3712 2.00032 12.3762 2.00032C12.3812 2.00032 12.3863 2.00032 12.3913 2.00032C12.3963 2.00032 12.4013 2.00032 12.4064 2.00032C12.4114 2.00032 12.4165 2.00032 12.4215 2.00032C12.4265 2.00032 12.4316 2.00032 12.4366 2.00032C12.4417 2.00032 12.4467 2.00032 12.4518 2.00032C12.4568 2.00032 12.4619 2.00032 12.467 2.00032C12.472 2.00032 12.4771 2.00032 12.4821 2.00032C12.4872 2.00032 12.4923 2.00032 12.4973 2.00032C12.5024 2.00032 12.5075 2.00032 12.5125 2.00032C12.5176 2.00032 12.5227 2.00032 12.5278 2.00032C12.5329 2.00032 12.5379 2.00032 12.543 2.00032C12.5481 2.00032 12.5532 2.00032 12.5583 2.00032C12.5634 2.00032 12.5685 2.00032 12.5735 2.00032C12.5786 2.00032 12.5837 2.00032 12.5888 2.00032C12.5939 2.00032 12.599 2.00032 12.6041 2.00032C12.6092 2.00032 12.6143 2.00032 12.6194 2.00032C12.6246 2.00032 12.6297 2.00032 12.6348 2.00032C12.6399 2.00032 12.645 2.00032 12.6501 2.00032C12.6552 2.00032 12.6604 2.00032 12.6655 2.00032C12.6706 2.00032 12.6757 2.00032 12.6808 2.00032C12.686 2.00032 12.6911 2.00032 12.6962 2.00032C12.7013 2.00032 12.7065 2.00032 12.7116 2.00032C12.7167 2.00032 12.7219 2.00032 12.727 2.00032C12.7322 2.00032 12.7373 2.00032 12.7424 2.00032C12.7476 2.00032 12.7527 2.00032 12.7579 2.00032C12.763 2.00032 12.7682 2.00032 12.7733 2.00032C12.7784 2.00032 12.7836 2.00032 12.7887 2.00032C12.7939 2.00032 12.7991 2.00032 12.8042 2.00032C12.8094 2.00032 12.8145 2.00032 12.8197 2.00032C12.8248 2.00032 12.83 2.00032 12.8352 2.00032C12.8403 2.00032 12.8455 2.00032 12.8507 2.00032C12.8558 2.00032 12.861 2.00032 12.8662 2.00032C12.8713 2.00032 12.8765 2.00032 12.8817 2.00032C12.8869 2.00032 12.892 2.00032 12.8972 2.00032C12.9024 2.00032 12.9076 2.00032 12.9127 2.00032C12.9179 2.00032 12.9231 2.00032 12.9283 2.00032C12.9335 2.00032 12.9386 2.00032 12.9438 2.00032C12.949 2.00032 12.9542 2.00032 12.9594 2.00032C12.9646 2.00032 12.9698 2.00032 12.975 2.00032C12.9802 2.00032 12.9853 2.00032 12.9905 2.00032C12.9957 2.00032 13.0009 2.00032 13.0061 2.00032C13.0113 2.00032 13.0165 2.00032 13.0217 2.00032C13.0269 2.00032 13.0321 2.00032 13.0373 2.00032C13.0425 2.00032 13.0477 2.00032 13.0529 2.00032C13.0581 2.00032 13.0633 2.00032 13.0686 2.00032C13.0738 2.00032 13.079 2.00032 13.0842 2.00032C13.0894 2.00032 13.0946 2.00032 13.0998 2.00032C13.105 2.00032 13.1102 2.00032 13.1154 2.00032C13.1207 2.00032 13.1259 2.00032 13.1311 2.00032C13.1363 2.00032 13.1415 2.00032 13.1467 2.00032C13.152 2.00032 13.1572 2.00032 13.1624 2.00032C13.1676 2.00032 13.1728 2.00032 13.1781 2.00032C13.1833 2.00032 13.1885 2.00032 13.1937 2.00032C13.1989 2.00032 13.2042 2.00032 13.2094 2.00032C13.2146 2.00032 13.2198 2.00032 13.2251 2.00032C13.2303 2.00032 13.2355 2.00032 13.2408 2.00032C13.246 2.00032 13.2512 2.00032 13.2564 2.00032C13.2617 2.00032 13.2669 2.00032 13.2721 2.00032C13.2774 2.00032 13.2826 2.00032 13.2878 2.00032C13.2931 2.00032 13.2983 2.00032 13.3035 2.00032C13.3088 2.00032 13.314 2.00032 13.3192 2.00032C13.3245 2.00032 13.3297 2.00032 13.3349 2.00032C13.3402 2.00032 13.3454 2.00032 13.3506 2.00032C13.3559 2.00032 13.3611 2.00032 13.3664 2.00032C13.3716 2.00032 13.3768 2.00032 13.3821 2.00032C13.3873 2.00032 13.3926 2.00032 13.3978 2.00032C13.403 2.00032 13.4083 2.00032 13.4135 2.00032C13.4188 2.00032 13.424 2.00032 13.4292 2.00032C13.4345 2.00032 13.4397 2.00032 13.445 2.00032C13.4502 2.00032 13.4554 2.00032 13.4607 2.00032C13.4659 2.00032 13.4712 2.00032 13.4764 2.00032C13.4817 2.00032 13.4869 2.00032 13.4921 2.00032C13.4974 2.00032 13.5026 2.00032 13.5079 2.00032C13.5131 2.00032 13.5184 2.00032 13.5236 2.00032C13.5289 2.00032 13.5341 2.00032 13.5393 2.00032C13.5446 2.00032 13.5498 2.00032 13.5551 2.00032C13.5603 2.00032 13.5656 2.00032 13.5708 2.00032C13.5761 2.00032 13.5813 2.00032 13.5865 2.00032C13.5918 2.00032 13.597 2.00032 13.6023 2.00032C13.6075 2.00032 13.6128 2.00032 13.618 2.00032C13.6232 2.00032 13.6285 2.00032 13.6337 2.00032C13.639 2.00032 13.6442 2.00032 13.6495 2.00032C13.6547 2.00032 13.66 2.00032 13.6652 2.00032C13.6704 2.00032 13.6757 2.00032 13.6809 2.00032C13.6862 2.00032 13.6914 2.00032 13.6966 2.00032C13.7019 2.00032 13.7071 2.00032 13.7124 2.00032C13.7176 2.00032 13.7229 2.00032 13.7281 2.00032C13.7333 2.00032 13.7386 2.00032 13.7438 2.00032C13.7491 2.00032 13.7543 2.00032 13.7595 2.00032C13.7648 2.00032 13.77 2.00032 13.7752 2.00032C13.7805 2.00032 13.7857 2.00032 13.791 2.00032C13.7962 2.00032 13.8014 2.00032 13.8067 2.00032C13.8119 2.00032 13.8171 2.00032 13.8224 2.00032C13.8276 2.00032 13.8328 2.00032 13.8381 2.00032C13.8433 2.00032 13.8485 2.00032 13.8538 2.00032C13.859 2.00032 13.8642 2.00032 13.8695 2.00032C13.8747 2.00032 13.8799 2.00032 13.8852 2.00032C13.8904 2.00032 13.8956 2.00032 13.9008 2.00032C13.9061 2.00032 13.9113 2.00032 13.9165 2.00032C13.9217 2.00032 13.927 2.00032 13.9322 2.00032C13.9374 2.00032 13.9426 2.00032 13.9479 2.00032C13.9531 2.00032 13.9583 2.00032 13.9635 2.00032C13.9688 2.00032 13.974 2.00032 13.9792 2.00032C13.9844 2.00032 13.9896 2.00032 13.9948 2.00032C14.0001 2.00032 14.0053 2.00032 14.0105 2.00032C14.0157 2.00032 14.0209 2.00032 14.0261 2.00032C14.0313 2.00032 14.0366 2.00032 14.0418 2.00032C14.047 2.00032 14.0522 2.00032 14.0574 2.00032C14.0626 2.00032 14.0678 2.00032 14.073 2.00032C14.0782 2.00032 14.0834 2.00032 14.0886 2.00032C14.0938 2.00032 14.099 2.00032 14.1042 2.00032C14.1094 2.00032 14.1146 2.00032 14.1198 2.00032C14.125 2.00032 14.1302 2.00032 14.1354 2.00032C14.1406 2.00032 14.1458 2.00032 14.151 2.00032C14.1562 2.00032 14.1614 2.00032 14.1666 2.00032C14.1718 2.00032 14.177 2.00032 14.1821 2.00032C14.1873 2.00032 14.1925 2.00032 14.1977 2.00032C14.2029 2.00032 14.2081 2.00032 14.2132 2.00032C14.2184 2.00032 14.2236 2.00032 14.2288 2.00032C14.234 2.00032 14.2391 2.00032 14.2443 2.00032C14.2495 2.00032 14.2547 2.00032 14.2598 2.00032C14.265 2.00032 14.2702 2.00032 14.2753 2.00032C14.2805 2.00032 14.2857 2.00032 14.2908 2.00032C14.296 2.00032 14.3012 2.00032 14.3063 2.00032C14.3115 2.00032 14.3166 2.00032 14.3218 2.00032C14.327 2.00032 14.3321 2.00032 14.3373 2.00032C14.3424 2.00032 14.3476 2.00032 14.3527 2.00032C14.3579 2.00032 14.363 2.00032 14.3682 2.00032C14.3733 2.00032 14.3785 2.00032 14.3836 2.00032C14.3888 2.00032 14.3939 2.00032 14.399 2.00032C14.4042 2.00032 14.4093 2.00032 14.4144 2.00032C14.4196 2.00032 14.4247 2.00032 14.4298 2.00032C14.435 2.00032 14.4401 2.00032 14.4452 2.00032C14.4504 2.00032 14.4555 2.00032 14.4606 2.00032C14.4657 2.00032 14.4708 2.00032 14.476 2.00032C14.4811 2.00032 14.4862 2.00032 14.4913 2.00032C14.4964 2.00032 14.5015 2.00032 14.5066 2.00032C14.5118 2.00032 14.5169 2.00032 14.522 2.00032C14.5271 2.00032 14.5322 2.00032 14.5373 2.00032C14.5424 2.00032 14.5475 2.00032 14.5526 2.00032C14.5577 2.00032 14.5628 2.00032 14.5678 2.00032C14.5729 2.00032 14.578 2.00032 14.5831 2.00032C14.5882 2.00032 14.5933 2.00032 14.5984 2.00032C14.6034 2.00032 14.6085 2.00032 14.6136 2.00032C14.6187 2.00032 14.6238 2.00032 14.6288 2.00032C14.6339 2.00032 14.639 2.00032 14.644 2.00032C14.6491 2.00032 14.6542 2.00032 14.6592 2.00032C14.6643 2.00032 14.6693 2.00032 14.6744 2.00032C14.6794 2.00032 14.6845 2.00032 14.6896 2.00032C14.6946 2.00032 14.6996 2.00032 14.7047 2.00032C14.7097 2.00032 14.7148 2.00032 14.7198 2.00032C14.7249 2.00032 14.7299 2.00032 14.7349 2.00032C14.74 2.00032 14.745 2.00032 14.75 2.00032C14.7551 2.00032 14.7601 2.00032 14.7651 2.00032C14.7701 2.00032 14.7751 2.00032 14.7802 2.00032C14.7852 2.00032 14.7902 2.00032 14.7952 2.00032C14.8002 2.00032 14.8052 2.00032 14.8102 2.00032C14.8152 2.00032 14.8202 2.00032 14.8252 2.00032C14.8302 2.00032 14.8352 2.00032 14.8402 2.00032C14.8452 2.00032 14.8502 2.00032 14.8552 2.00032C14.8602 2.00032 14.8652 2.00032 14.8701 2.00032C14.8751 2.00032 14.8801 2.00032 14.8851 2.00032C14.89 2.00032 14.895 2.00032 14.9 2.00032C14.9049 2.00032 14.9099 2.00032 14.9149 2.00032C14.9198 2.00032 14.9248 2.00032 14.9297 2.00032C14.9347 2.00032 14.9397 2.00032 14.9446 2.00032C14.9496 2.00032 14.9545 2.00032 14.9594 2.00032C14.9644 2.00032 14.9693 2.00032 14.9743 2.00032C14.9792 2.00032 14.9841 2.00032 14.989 2.00032C14.994 2.00032 14.9989 2.00032 15.0038 2.00032C15.0087 2.00032 15.0137 2.00032 15.0186 2.00032C15.0235 2.00032 15.0284 2.00032 15.0333 2.00032C15.0382 2.00032 15.0431 2.00032 15.048 2.00032C15.0529 2.00032 15.0578 2.00032 15.0627 2.00032C15.0676 2.00032 15.0725 2.00032 15.0774 2.00032C15.0823 2.00032 15.0871 2.00032 15.092 2.00032C15.0969 2.00032 15.1018 2.00032 15.1066 2.00032C15.1115 2.00032 15.1164 2.00032 15.1212 2.00032C15.1261 2.00032 15.131 2.00032 15.1358 2.00032C15.1407 2.00032 15.1455 2.00032 15.1504 2.00032C15.1552 2.00032 15.1601 2.00032 15.1649 2.00032C15.1697 2.00032 15.1746 2.00032 15.1794 2.00032C15.1842 2.00032 15.1891 2.00032 15.1939 2.00032C15.1987 2.00032 15.2035 2.00032 15.2084 2.00032C15.2132 2.00032 15.218 2.00032 15.2228 2.00032C15.2276 2.00032 15.2324 2.00032 15.2372 2.00032C15.242 2.00032 15.2468 2.00032 15.2516 2.00032C15.2564 2.00032 15.2612 2.00032 15.266 2.00032C15.2708 2.00032 15.2755 2.00032 15.2803 2.00032C15.2851 2.00032 15.2899 2.00032 15.2946 2.00032C15.2994 2.00032 15.3042 2.00032 15.3089 2.00032C15.3137 2.00032 15.3184 2.00032 15.3232 2.00032C15.3279 2.00032 15.3327 2.00032 15.3374 2.00032C15.3422 2.00032 15.3469 2.00032 15.3516 2.00032C15.3564 2.00032 15.3611 2.00032 15.3658 2.00032C15.3705 2.00032 15.3753 2.00032 15.38 2.00032C15.3847 2.00032 15.3894 2.00032 15.3941 2.00032C15.3988 2.00032 15.4035 2.00032 15.4082 2.00032C15.4129 2.00032 15.4176 2.00032 15.4223 2.00032C15.427 2.00032 15.4317 2.00032 15.4363 2.00032C15.441 2.00032 15.4457 2.00032 15.4504 2.00032C15.455 2.00032 15.4597 2.00032 15.4644 2.00032C15.469 2.00032 15.4737 2.00032 15.4783 2.00032C15.483 2.00032 15.4876 2.00032 15.4923 2.00032C15.4969 2.00032 15.5016 2.00032 15.5062 2.00032C15.5108 2.00032 15.5155 2.00032 15.5201 2.00032C15.5247 2.00032 15.5293 2.00032 15.5339 2.00032C15.5385 2.00032 15.5432 2.00032 15.5478 2.00032C15.5524 2.00032 15.557 2.00032 15.5616 2.00032C15.5662 2.00032 15.5707 2.00032 15.5753 2.00032C15.5799 2.00032 15.5845 2.00032 15.5891 2.00032C15.5936 2.00032 15.5982 2.00032 15.6028 2.00032C15.6073 2.00032 15.6119 2.00032 15.6164 2.00032C15.621 2.00032 15.6256 2.00032 15.6301 2.00032C15.6346 2.00032 15.6392 2.00032 15.6437 2.00032C15.6482 2.00032 15.6528 2.00032 15.6573 2.00032C15.6618 2.00032 15.6663 2.00032 15.6709 2.00032C15.6754 2.00032 15.6799 2.00032 15.6844 2.00032C15.6889 2.00032 15.6934 2.00032 15.6979 2.00032C15.7024 2.00032 15.7068 2.00032 15.7113 2.00032C15.7158 2.00032 15.7203 2.00032 15.7248 2.00032C15.7292 2.00032 15.7337 2.00032 15.7382 2.00032C15.7426 2.00032 15.7471 2.00032 15.7515 2.00032C15.756 2.00032 15.7604 2.00032 15.7648 2.00032C15.7693 2.00032 15.7737 2.00032 15.7781 2.00032C15.7826 2.00032 15.787 2.00032 15.7914 2.00032C15.7958 2.00032 15.8002 2.00032 15.8046 2.00032C15.809 2.00032 15.8134 2.00032 15.8178 2.00032C15.8222 2.00032 15.8266 2.00032 15.831 2.00032C15.8354 2.00032 15.8398 2.00032 15.8441 2.00032C15.8485 2.00032 15.8529 2.00032 15.8572 2.00032C15.8616 2.00032 15.8659 2.00032 15.8703 2.00032C15.8746 2.00032 15.879 2.00032 15.8833 2.00032C15.8877 2.00032 15.892 2.00032 15.8963 2.00032C15.9006 2.00032 15.905 2.00032 15.9093 2.00032C15.9136 2.00032 15.9179 2.00032 15.9222 2.00032C15.9265 2.00032 15.9308 2.00032 15.9351 2.00032C15.9394 2.00032 15.9437 2.00032 15.9479 2.00032C15.9522 2.00032 15.9565 2.00032 15.9607 2.00032C15.965 2.00032 15.9693 2.00032 15.9735 2.00032C15.9778 2.00032 15.982 2.00032 15.9863 2.00032C15.9905 2.00032 15.9947 2.00032 15.999 2.00032C16.0032 2.00032 16.0074 2.00032 16.0116 2.00032C16.0159 2.00032 16.0201 2.00032 16.0243 2.00032C16.0285 2.00032 16.0327 2.00032 16.0369 2.00032C16.0411 2.00032 16.0452 2.00032 16.0494 2.00032C16.0536 2.00032 16.0578 2.00032 16.0619 2.00032C16.0661 2.00032 16.0703 2.00032 16.0744 2.00032C16.0786 2.00032 16.0827 2.00032 16.0869 2.00032C16.091 2.00032 16.0951 2.00032 16.0993 2.00032C16.1034 2.00032 16.1075 2.00032 16.1116 2.00032C16.1158 2.00032 16.1199 2.00032 16.124 2.00032C16.1281 2.00032 16.1322 2.00032 16.1363 2.00032C16.1403 2.00032 16.1444 2.00032 16.1485 2.00032C16.1526 2.00032 16.1567 2.00032 16.1607 2.00032C16.1648 2.00032 16.1688 2.00032 16.1729 2.00032C16.1769 2.00032 16.181 2.00032 16.185 2.00032C16.1891 2.00032 16.1931 2.00032 16.1971 2.00032C16.2011 2.00032 16.2051 2.00032 16.2092 2.00032C16.2132 2.00032 16.2172 2.00032 16.2212 2.00032C16.2252 2.00032 16.2291 2.00032 16.2331 2.00032C16.2371 2.00032 16.2411 2.00032 16.2451 2.00032C16.249 2.00032 16.253 2.00032 16.2569 2.00032C16.2609 2.00032 16.2648 2.00032 16.2688 2.00032C16.2727 2.00032 16.2767 2.00032 16.2806 2.00032C16.2845 2.00032 16.2884 2.00032 16.2923 2.00032C16.2963 2.00032 16.3002 2.00032 16.3041 2.00032C16.308 2.00032 16.3119 2.00032 16.3157 2.00032C16.3196 2.00032 16.3235 2.00032 16.3274 2.00032C16.3312 2.00032 16.3351 2.00032 16.339 2.00032C16.3428 2.00032 16.3467 2.00032 16.3505 2.00032C16.3543 2.00032 16.3582 2.00032 16.362 2.00032C16.3658 2.00032 16.3697 2.00032 16.3735 2.00032C16.3773 2.00032 16.3811 2.00032 16.3849 2.00032C16.3887 2.00032 16.3925 2.00032 16.3963 2.00032C16.4 2.00032 16.4038 2.00032 16.4076 2.00032C16.4114 2.00032 16.4151 2.00032 16.4189 2.00032C16.4226 2.00032 16.4264 2.00032 16.4301 2.00032C16.4338 2.00032 16.4376 2.00032 16.4413 2.00032C16.445 2.00032 16.4487 2.00032 16.4524 2.00032C16.4562 2.00032 16.4599 2.00032 16.4635 2.00032C16.4672 2.00032 16.4709 2.00032 16.4746 2.00032C16.4783 2.00032 16.482 2.00032 16.4856 2.00032C16.4893 2.00032 16.4929 2.00032 16.4966 2.00032C16.5002 2.00032 16.5039 2.00032 16.5075 2.00032C16.5111 2.00032 16.5148 2.00032 16.5184 2.00032C16.522 2.00032 16.5256 2.00032 16.5292 2.00032C16.5328 2.00032 16.5364 2.00032 16.54 2.00032C16.5436 2.00032 16.5471 2.00032 16.5507 2.00032C16.5543 2.00032 16.5578 2.00032 16.5614 2.00032C16.565 2.00032 16.5685 2.00032 16.572 2.00032C16.5756 2.00032 16.5791 2.00032 16.5826 2.00032C16.5861 2.00032 16.5897 2.00032 16.5932 2.00032C16.5967 2.00032 16.6002 2.00032 16.6037 2.00032C16.6071 2.00032 16.6106 2.00032 16.6141 2.00032C16.6176 2.00032 16.621 2.00032 16.6245 2.00032C16.628 2.00032 16.6314 2.00032 16.6348 2.00032C16.6383 2.00032 16.6417 2.00032 16.6451 2.00032C16.6486 2.00032 16.652 2.00032 16.6554 2.00032C16.6588 2.00032 16.6622 2.00032 16.6656 2.00032C16.669 2.00032 16.6724 2.00032 16.6757 2.00032C16.6791 2.00032 16.6825 2.00032 16.6858 2.00032C16.6892 2.00032 16.6926 2.00032 16.6959 2.00032C16.6992 2.00032 16.7026 2.00032 16.7059 2.00032C16.7092 2.00032 16.7125 2.00032 16.7158 2.00032C16.7191 2.00032 16.7224 2.00032 16.7257 2.00032C16.729 2.00032 16.7323 2.00032 16.7356 2.00032C16.7389 2.00032 16.7421 2.00032 16.7454 2.00032C16.7486 2.00032 16.7519 2.00032 16.7551 2.00032C16.7584 2.00032 16.7616 2.00032 16.7648 2.00032C16.768 2.00032 16.7712 2.00032 16.7745 2.00032C16.7777 2.00032 16.7809 2.00032 16.784 2.00032C16.7872 2.00032 16.7904 2.00032 16.7936 2.00032C16.7967 2.00032 16.7999 2.00032 16.8031 2.00032C16.8062 2.00032 16.8093 2.00032 16.8125 2.00032C16.8156 2.00032 16.8187 2.00032 16.8219 2.00032C16.825 2.00032 16.8281 2.00032 16.8312 2.00032C16.8343 2.00032 16.8374 2.00032 16.8404 2.00032C16.8435 2.00032 16.8466 2.00032 16.8497 2.00032C16.8527 2.00032 16.8558 2.00032 16.8588 2.00032C16.8619 2.00032 16.8649 2.00032 16.8679 2.00032C16.871 2.00032 16.874 2.00032 16.877 2.00032C16.88 2.00032 16.883 2.00032 16.886 2.00032C16.889 2.00032 16.892 2.00032 16.8949 2.00032C16.8979 2.00032 16.9009 2.00032 16.9038 2.00032V0.000321507C16.9009 0.000321507 16.8979 0.000321507 16.8949 0.000321507C16.892 0.000321507 16.889 0.000321507 16.886 0.000321507C16.883 0.000321507 16.88 0.000321507 16.877 0.000321507C16.874 0.000321507 16.871 0.000321507 16.8679 0.000321507C16.8649 0.000321507 16.8619 0.000321507 16.8588 0.000321507C16.8558 0.000321507 16.8527 0.000321507 16.8497 0.000321507C16.8466 0.000321507 16.8435 0.000321507 16.8404 0.000321507C16.8374 0.000321507 16.8343 0.000321507 16.8312 0.000321507C16.8281 0.000321507 16.825 0.000321507 16.8219 0.000321507C16.8187 0.000321507 16.8156 0.000321507 16.8125 0.000321507C16.8093 0.000321507 16.8062 0.000321507 16.8031 0.000321507C16.7999 0.000321507 16.7967 0.000321507 16.7936 0.000321507C16.7904 0.000321507 16.7872 0.000321507 16.784 0.000321507C16.7809 0.000321507 16.7777 0.000321507 16.7745 0.000321507C16.7712 0.000321507 16.768 0.000321507 16.7648 0.000321507C16.7616 0.000321507 16.7584 0.000321507 16.7551 0.000321507C16.7519 0.000321507 16.7486 0.000321507 16.7454 0.000321507C16.7421 0.000321507 16.7389 0.000321507 16.7356 0.000321507C16.7323 0.000321507 16.729 0.000321507 16.7257 0.000321507C16.7224 0.000321507 16.7191 0.000321507 16.7158 0.000321507C16.7125 0.000321507 16.7092 0.000321507 16.7059 0.000321507C16.7026 0.000321507 16.6992 0.000321507 16.6959 0.000321507C16.6926 0.000321507 16.6892 0.000321507 16.6858 0.000321507C16.6825 0.000321507 16.6791 0.000321507 16.6757 0.000321507C16.6724 0.000321507 16.669 0.000321507 16.6656 0.000321507C16.6622 0.000321507 16.6588 0.000321507 16.6554 0.000321507C16.652 0.000321507 16.6486 0.000321507 16.6451 0.000321507C16.6417 0.000321507 16.6383 0.000321507 16.6348 0.000321507C16.6314 0.000321507 16.628 0.000321507 16.6245 0.000321507C16.621 0.000321507 16.6176 0.000321507 16.6141 0.000321507C16.6106 0.000321507 16.6071 0.000321507 16.6037 0.000321507C16.6002 0.000321507 16.5967 0.000321507 16.5932 0.000321507C16.5897 0.000321507 16.5861 0.000321507 16.5826 0.000321507C16.5791 0.000321507 16.5756 0.000321507 16.572 0.000321507C16.5685 0.000321507 16.565 0.000321507 16.5614 0.000321507C16.5578 0.000321507 16.5543 0.000321507 16.5507 0.000321507C16.5471 0.000321507 16.5436 0.000321507 16.54 0.000321507C16.5364 0.000321507 16.5328 0.000321507 16.5292 0.000321507C16.5256 0.000321507 16.522 0.000321507 16.5184 0.000321507C16.5148 0.000321507 16.5111 0.000321507 16.5075 0.000321507C16.5039 0.000321507 16.5002 0.000321507 16.4966 0.000321507C16.4929 0.000321507 16.4893 0.000321507 16.4856 0.000321507C16.482 0.000321507 16.4783 0.000321507 16.4746 0.000321507C16.4709 0.000321507 16.4672 0.000321507 16.4635 0.000321507C16.4599 0.000321507 16.4562 0.000321507 16.4524 0.000321507C16.4487 0.000321507 16.445 0.000321507 16.4413 0.000321507C16.4376 0.000321507 16.4338 0.000321507 16.4301 0.000321507C16.4264 0.000321507 16.4226 0.000321507 16.4189 0.000321507C16.4151 0.000321507 16.4114 0.000321507 16.4076 0.000321507C16.4038 0.000321507 16.4 0.000321507 16.3963 0.000321507C16.3925 0.000321507 16.3887 0.000321507 16.3849 0.000321507C16.3811 0.000321507 16.3773 0.000321507 16.3735 0.000321507C16.3697 0.000321507 16.3658 0.000321507 16.362 0.000321507C16.3582 0.000321507 16.3543 0.000321507 16.3505 0.000321507C16.3467 0.000321507 16.3428 0.000321507 16.339 0.000321507C16.3351 0.000321507 16.3312 0.000321507 16.3274 0.000321507C16.3235 0.000321507 16.3196 0.000321507 16.3157 0.000321507C16.3119 0.000321507 16.308 0.000321507 16.3041 0.000321507C16.3002 0.000321507 16.2963 0.000321507 16.2923 0.000321507C16.2884 0.000321507 16.2845 0.000321507 16.2806 0.000321507C16.2767 0.000321507 16.2727 0.000321507 16.2688 0.000321507C16.2648 0.000321507 16.2609 0.000321507 16.2569 0.000321507C16.253 0.000321507 16.249 0.000321507 16.2451 0.000321507C16.2411 0.000321507 16.2371 0.000321507 16.2331 0.000321507C16.2291 0.000321507 16.2252 0.000321507 16.2212 0.000321507C16.2172 0.000321507 16.2132 0.000321507 16.2092 0.000321507C16.2051 0.000321507 16.2011 0.000321507 16.1971 0.000321507C16.1931 0.000321507 16.1891 0.000321507 16.185 0.000321507C16.181 0.000321507 16.1769 0.000321507 16.1729 0.000321507C16.1688 0.000321507 16.1648 0.000321507 16.1607 0.000321507C16.1567 0.000321507 16.1526 0.000321507 16.1485 0.000321507C16.1444 0.000321507 16.1403 0.000321507 16.1363 0.000321507C16.1322 0.000321507 16.1281 0.000321507 16.124 0.000321507C16.1199 0.000321507 16.1158 0.000321507 16.1116 0.000321507C16.1075 0.000321507 16.1034 0.000321507 16.0993 0.000321507C16.0951 0.000321507 16.091 0.000321507 16.0869 0.000321507C16.0827 0.000321507 16.0786 0.000321507 16.0744 0.000321507C16.0703 0.000321507 16.0661 0.000321507 16.0619 0.000321507C16.0578 0.000321507 16.0536 0.000321507 16.0494 0.000321507C16.0452 0.000321507 16.0411 0.000321507 16.0369 0.000321507C16.0327 0.000321507 16.0285 0.000321507 16.0243 0.000321507C16.0201 0.000321507 16.0159 0.000321507 16.0116 0.000321507C16.0074 0.000321507 16.0032 0.000321507 15.999 0.000321507C15.9947 0.000321507 15.9905 0.000321507 15.9863 0.000321507C15.982 0.000321507 15.9778 0.000321507 15.9735 0.000321507C15.9693 0.000321507 15.965 0.000321507 15.9607 0.000321507C15.9565 0.000321507 15.9522 0.000321507 15.9479 0.000321507C15.9437 0.000321507 15.9394 0.000321507 15.9351 0.000321507C15.9308 0.000321507 15.9265 0.000321507 15.9222 0.000321507C15.9179 0.000321507 15.9136 0.000321507 15.9093 0.000321507C15.905 0.000321507 15.9006 0.000321507 15.8963 0.000321507C15.892 0.000321507 15.8877 0.000321507 15.8833 0.000321507C15.879 0.000321507 15.8746 0.000321507 15.8703 0.000321507C15.8659 0.000321507 15.8616 0.000321507 15.8572 0.000321507C15.8529 0.000321507 15.8485 0.000321507 15.8441 0.000321507C15.8398 0.000321507 15.8354 0.000321507 15.831 0.000321507C15.8266 0.000321507 15.8222 0.000321507 15.8178 0.000321507C15.8134 0.000321507 15.809 0.000321507 15.8046 0.000321507C15.8002 0.000321507 15.7958 0.000321507 15.7914 0.000321507C15.787 0.000321507 15.7826 0.000321507 15.7781 0.000321507C15.7737 0.000321507 15.7693 0.000321507 15.7648 0.000321507C15.7604 0.000321507 15.756 0.000321507 15.7515 0.000321507C15.7471 0.000321507 15.7426 0.000321507 15.7382 0.000321507C15.7337 0.000321507 15.7292 0.000321507 15.7248 0.000321507C15.7203 0.000321507 15.7158 0.000321507 15.7113 0.000321507C15.7068 0.000321507 15.7024 0.000321507 15.6979 0.000321507C15.6934 0.000321507 15.6889 0.000321507 15.6844 0.000321507C15.6799 0.000321507 15.6754 0.000321507 15.6709 0.000321507C15.6663 0.000321507 15.6618 0.000321507 15.6573 0.000321507C15.6528 0.000321507 15.6482 0.000321507 15.6437 0.000321507C15.6392 0.000321507 15.6346 0.000321507 15.6301 0.000321507C15.6256 0.000321507 15.621 0.000321507 15.6164 0.000321507C15.6119 0.000321507 15.6073 0.000321507 15.6028 0.000321507C15.5982 0.000321507 15.5936 0.000321507 15.5891 0.000321507C15.5845 0.000321507 15.5799 0.000321507 15.5753 0.000321507C15.5707 0.000321507 15.5662 0.000321507 15.5616 0.000321507C15.557 0.000321507 15.5524 0.000321507 15.5478 0.000321507C15.5432 0.000321507 15.5385 0.000321507 15.5339 0.000321507C15.5293 0.000321507 15.5247 0.000321507 15.5201 0.000321507C15.5155 0.000321507 15.5108 0.000321507 15.5062 0.000321507C15.5016 0.000321507 15.4969 0.000321507 15.4923 0.000321507C15.4876 0.000321507 15.483 0.000321507 15.4783 0.000321507C15.4737 0.000321507 15.469 0.000321507 15.4644 0.000321507C15.4597 0.000321507 15.455 0.000321507 15.4504 0.000321507C15.4457 0.000321507 15.441 0.000321507 15.4363 0.000321507C15.4317 0.000321507 15.427 0.000321507 15.4223 0.000321507C15.4176 0.000321507 15.4129 0.000321507 15.4082 0.000321507C15.4035 0.000321507 15.3988 0.000321507 15.3941 0.000321507C15.3894 0.000321507 15.3847 0.000321507 15.38 0.000321507C15.3753 0.000321507 15.3705 0.000321507 15.3658 0.000321507C15.3611 0.000321507 15.3564 0.000321507 15.3516 0.000321507C15.3469 0.000321507 15.3422 0.000321507 15.3374 0.000321507C15.3327 0.000321507 15.3279 0.000321507 15.3232 0.000321507C15.3184 0.000321507 15.3137 0.000321507 15.3089 0.000321507C15.3042 0.000321507 15.2994 0.000321507 15.2946 0.000321507C15.2899 0.000321507 15.2851 0.000321507 15.2803 0.000321507C15.2755 0.000321507 15.2708 0.000321507 15.266 0.000321507C15.2612 0.000321507 15.2564 0.000321507 15.2516 0.000321507C15.2468 0.000321507 15.242 0.000321507 15.2372 0.000321507C15.2324 0.000321507 15.2276 0.000321507 15.2228 0.000321507C15.218 0.000321507 15.2132 0.000321507 15.2084 0.000321507C15.2035 0.000321507 15.1987 0.000321507 15.1939 0.000321507C15.1891 0.000321507 15.1842 0.000321507 15.1794 0.000321507C15.1746 0.000321507 15.1697 0.000321507 15.1649 0.000321507C15.1601 0.000321507 15.1552 0.000321507 15.1504 0.000321507C15.1455 0.000321507 15.1407 0.000321507 15.1358 0.000321507C15.131 0.000321507 15.1261 0.000321507 15.1212 0.000321507C15.1164 0.000321507 15.1115 0.000321507 15.1066 0.000321507C15.1018 0.000321507 15.0969 0.000321507 15.092 0.000321507C15.0871 0.000321507 15.0823 0.000321507 15.0774 0.000321507C15.0725 0.000321507 15.0676 0.000321507 15.0627 0.000321507C15.0578 0.000321507 15.0529 0.000321507 15.048 0.000321507C15.0431 0.000321507 15.0382 0.000321507 15.0333 0.000321507C15.0284 0.000321507 15.0235 0.000321507 15.0186 0.000321507C15.0137 0.000321507 15.0087 0.000321507 15.0038 0.000321507C14.9989 0.000321507 14.994 0.000321507 14.989 0.000321507C14.9841 0.000321507 14.9792 0.000321507 14.9743 0.000321507C14.9693 0.000321507 14.9644 0.000321507 14.9594 0.000321507C14.9545 0.000321507 14.9496 0.000321507 14.9446 0.000321507C14.9397 0.000321507 14.9347 0.000321507 14.9297 0.000321507C14.9248 0.000321507 14.9198 0.000321507 14.9149 0.000321507C14.9099 0.000321507 14.9049 0.000321507 14.9 0.000321507C14.895 0.000321507 14.89 0.000321507 14.8851 0.000321507C14.8801 0.000321507 14.8751 0.000321507 14.8701 0.000321507C14.8652 0.000321507 14.8602 0.000321507 14.8552 0.000321507C14.8502 0.000321507 14.8452 0.000321507 14.8402 0.000321507C14.8352 0.000321507 14.8302 0.000321507 14.8252 0.000321507C14.8202 0.000321507 14.8152 0.000321507 14.8102 0.000321507C14.8052 0.000321507 14.8002 0.000321507 14.7952 0.000321507C14.7902 0.000321507 14.7852 0.000321507 14.7802 0.000321507C14.7751 0.000321507 14.7701 0.000321507 14.7651 0.000321507C14.7601 0.000321507 14.7551 0.000321507 14.75 0.000321507C14.745 0.000321507 14.74 0.000321507 14.7349 0.000321507C14.7299 0.000321507 14.7249 0.000321507 14.7198 0.000321507C14.7148 0.000321507 14.7097 0.000321507 14.7047 0.000321507C14.6996 0.000321507 14.6946 0.000321507 14.6896 0.000321507C14.6845 0.000321507 14.6794 0.000321507 14.6744 0.000321507C14.6693 0.000321507 14.6643 0.000321507 14.6592 0.000321507C14.6542 0.000321507 14.6491 0.000321507 14.644 0.000321507C14.639 0.000321507 14.6339 0.000321507 14.6288 0.000321507C14.6238 0.000321507 14.6187 0.000321507 14.6136 0.000321507C14.6085 0.000321507 14.6034 0.000321507 14.5984 0.000321507C14.5933 0.000321507 14.5882 0.000321507 14.5831 0.000321507C14.578 0.000321507 14.5729 0.000321507 14.5678 0.000321507C14.5628 0.000321507 14.5577 0.000321507 14.5526 0.000321507C14.5475 0.000321507 14.5424 0.000321507 14.5373 0.000321507C14.5322 0.000321507 14.5271 0.000321507 14.522 0.000321507C14.5169 0.000321507 14.5118 0.000321507 14.5066 0.000321507C14.5015 0.000321507 14.4964 0.000321507 14.4913 0.000321507C14.4862 0.000321507 14.4811 0.000321507 14.476 0.000321507C14.4708 0.000321507 14.4657 0.000321507 14.4606 0.000321507C14.4555 0.000321507 14.4504 0.000321507 14.4452 0.000321507C14.4401 0.000321507 14.435 0.000321507 14.4298 0.000321507C14.4247 0.000321507 14.4196 0.000321507 14.4144 0.000321507C14.4093 0.000321507 14.4042 0.000321507 14.399 0.000321507C14.3939 0.000321507 14.3888 0.000321507 14.3836 0.000321507C14.3785 0.000321507 14.3733 0.000321507 14.3682 0.000321507C14.363 0.000321507 14.3579 0.000321507 14.3527 0.000321507C14.3476 0.000321507 14.3424 0.000321507 14.3373 0.000321507C14.3321 0.000321507 14.327 0.000321507 14.3218 0.000321507C14.3166 0.000321507 14.3115 0.000321507 14.3063 0.000321507C14.3012 0.000321507 14.296 0.000321507 14.2908 0.000321507C14.2857 0.000321507 14.2805 0.000321507 14.2753 0.000321507C14.2702 0.000321507 14.265 0.000321507 14.2598 0.000321507C14.2547 0.000321507 14.2495 0.000321507 14.2443 0.000321507C14.2391 0.000321507 14.234 0.000321507 14.2288 0.000321507C14.2236 0.000321507 14.2184 0.000321507 14.2132 0.000321507C14.2081 0.000321507 14.2029 0.000321507 14.1977 0.000321507C14.1925 0.000321507 14.1873 0.000321507 14.1821 0.000321507C14.177 0.000321507 14.1718 0.000321507 14.1666 0.000321507C14.1614 0.000321507 14.1562 0.000321507 14.151 0.000321507C14.1458 0.000321507 14.1406 0.000321507 14.1354 0.000321507C14.1302 0.000321507 14.125 0.000321507 14.1198 0.000321507C14.1146 0.000321507 14.1094 0.000321507 14.1042 0.000321507C14.099 0.000321507 14.0938 0.000321507 14.0886 0.000321507C14.0834 0.000321507 14.0782 0.000321507 14.073 0.000321507C14.0678 0.000321507 14.0626 0.000321507 14.0574 0.000321507C14.0522 0.000321507 14.047 0.000321507 14.0418 0.000321507C14.0366 0.000321507 14.0313 0.000321507 14.0261 0.000321507C14.0209 0.000321507 14.0157 0.000321507 14.0105 0.000321507C14.0053 0.000321507 14.0001 0.000321507 13.9948 0.000321507C13.9896 0.000321507 13.9844 0.000321507 13.9792 0.000321507C13.974 0.000321507 13.9688 0.000321507 13.9635 0.000321507C13.9583 0.000321507 13.9531 0.000321507 13.9479 0.000321507C13.9426 0.000321507 13.9374 0.000321507 13.9322 0.000321507C13.927 0.000321507 13.9217 0.000321507 13.9165 0.000321507C13.9113 0.000321507 13.9061 0.000321507 13.9008 0.000321507C13.8956 0.000321507 13.8904 0.000321507 13.8852 0.000321507C13.8799 0.000321507 13.8747 0.000321507 13.8695 0.000321507C13.8642 0.000321507 13.859 0.000321507 13.8538 0.000321507C13.8485 0.000321507 13.8433 0.000321507 13.8381 0.000321507C13.8328 0.000321507 13.8276 0.000321507 13.8224 0.000321507C13.8171 0.000321507 13.8119 0.000321507 13.8067 0.000321507C13.8014 0.000321507 13.7962 0.000321507 13.791 0.000321507C13.7857 0.000321507 13.7805 0.000321507 13.7752 0.000321507C13.77 0.000321507 13.7648 0.000321507 13.7595 0.000321507C13.7543 0.000321507 13.7491 0.000321507 13.7438 0.000321507C13.7386 0.000321507 13.7333 0.000321507 13.7281 0.000321507C13.7229 0.000321507 13.7176 0.000321507 13.7124 0.000321507C13.7071 0.000321507 13.7019 0.000321507 13.6966 0.000321507C13.6914 0.000321507 13.6862 0.000321507 13.6809 0.000321507C13.6757 0.000321507 13.6704 0.000321507 13.6652 0.000321507C13.66 0.000321507 13.6547 0.000321507 13.6495 0.000321507C13.6442 0.000321507 13.639 0.000321507 13.6337 0.000321507C13.6285 0.000321507 13.6232 0.000321507 13.618 0.000321507C13.6128 0.000321507 13.6075 0.000321507 13.6023 0.000321507C13.597 0.000321507 13.5918 0.000321507 13.5865 0.000321507C13.5813 0.000321507 13.5761 0.000321507 13.5708 0.000321507C13.5656 0.000321507 13.5603 0.000321507 13.5551 0.000321507C13.5498 0.000321507 13.5446 0.000321507 13.5393 0.000321507C13.5341 0.000321507 13.5289 0.000321507 13.5236 0.000321507C13.5184 0.000321507 13.5131 0.000321507 13.5079 0.000321507C13.5026 0.000321507 13.4974 0.000321507 13.4921 0.000321507C13.4869 0.000321507 13.4817 0.000321507 13.4764 0.000321507C13.4712 0.000321507 13.4659 0.000321507 13.4607 0.000321507C13.4554 0.000321507 13.4502 0.000321507 13.445 0.000321507C13.4397 0.000321507 13.4345 0.000321507 13.4292 0.000321507C13.424 0.000321507 13.4188 0.000321507 13.4135 0.000321507C13.4083 0.000321507 13.403 0.000321507 13.3978 0.000321507C13.3926 0.000321507 13.3873 0.000321507 13.3821 0.000321507C13.3768 0.000321507 13.3716 0.000321507 13.3664 0.000321507C13.3611 0.000321507 13.3559 0.000321507 13.3506 0.000321507C13.3454 0.000321507 13.3402 0.000321507 13.3349 0.000321507C13.3297 0.000321507 13.3245 0.000321507 13.3192 0.000321507C13.314 0.000321507 13.3088 0.000321507 13.3035 0.000321507C13.2983 0.000321507 13.2931 0.000321507 13.2878 0.000321507C13.2826 0.000321507 13.2774 0.000321507 13.2721 0.000321507C13.2669 0.000321507 13.2617 0.000321507 13.2564 0.000321507C13.2512 0.000321507 13.246 0.000321507 13.2408 0.000321507C13.2355 0.000321507 13.2303 0.000321507 13.2251 0.000321507C13.2198 0.000321507 13.2146 0.000321507 13.2094 0.000321507C13.2042 0.000321507 13.1989 0.000321507 13.1937 0.000321507C13.1885 0.000321507 13.1833 0.000321507 13.1781 0.000321507C13.1728 0.000321507 13.1676 0.000321507 13.1624 0.000321507C13.1572 0.000321507 13.152 0.000321507 13.1467 0.000321507C13.1415 0.000321507 13.1363 0.000321507 13.1311 0.000321507C13.1259 0.000321507 13.1207 0.000321507 13.1154 0.000321507C13.1102 0.000321507 13.105 0.000321507 13.0998 0.000321507C13.0946 0.000321507 13.0894 0.000321507 13.0842 0.000321507C13.079 0.000321507 13.0738 0.000321507 13.0686 0.000321507C13.0633 0.000321507 13.0581 0.000321507 13.0529 0.000321507C13.0477 0.000321507 13.0425 0.000321507 13.0373 0.000321507C13.0321 0.000321507 13.0269 0.000321507 13.0217 0.000321507C13.0165 0.000321507 13.0113 0.000321507 13.0061 0.000321507C13.0009 0.000321507 12.9957 0.000321507 12.9905 0.000321507C12.9853 0.000321507 12.9802 0.000321507 12.975 0.000321507C12.9698 0.000321507 12.9646 0.000321507 12.9594 0.000321507C12.9542 0.000321507 12.949 0.000321507 12.9438 0.000321507C12.9386 0.000321507 12.9335 0.000321507 12.9283 0.000321507C12.9231 0.000321507 12.9179 0.000321507 12.9127 0.000321507C12.9076 0.000321507 12.9024 0.000321507 12.8972 0.000321507C12.892 0.000321507 12.8869 0.000321507 12.8817 0.000321507C12.8765 0.000321507 12.8713 0.000321507 12.8662 0.000321507C12.861 0.000321507 12.8558 0.000321507 12.8507 0.000321507C12.8455 0.000321507 12.8403 0.000321507 12.8352 0.000321507C12.83 0.000321507 12.8248 0.000321507 12.8197 0.000321507C12.8145 0.000321507 12.8094 0.000321507 12.8042 0.000321507C12.7991 0.000321507 12.7939 0.000321507 12.7887 0.000321507C12.7836 0.000321507 12.7784 0.000321507 12.7733 0.000321507C12.7682 0.000321507 12.763 0.000321507 12.7579 0.000321507C12.7527 0.000321507 12.7476 0.000321507 12.7424 0.000321507C12.7373 0.000321507 12.7322 0.000321507 12.727 0.000321507C12.7219 0.000321507 12.7167 0.000321507 12.7116 0.000321507C12.7065 0.000321507 12.7013 0.000321507 12.6962 0.000321507C12.6911 0.000321507 12.686 0.000321507 12.6808 0.000321507C12.6757 0.000321507 12.6706 0.000321507 12.6655 0.000321507C12.6604 0.000321507 12.6552 0.000321507 12.6501 0.000321507C12.645 0.000321507 12.6399 0.000321507 12.6348 0.000321507C12.6297 0.000321507 12.6246 0.000321507 12.6194 0.000321507C12.6143 0.000321507 12.6092 0.000321507 12.6041 0.000321507C12.599 0.000321507 12.5939 0.000321507 12.5888 0.000321507C12.5837 0.000321507 12.5786 0.000321507 12.5735 0.000321507C12.5685 0.000321507 12.5634 0.000321507 12.5583 0.000321507C12.5532 0.000321507 12.5481 0.000321507 12.543 0.000321507C12.5379 0.000321507 12.5329 0.000321507 12.5278 0.000321507C12.5227 0.000321507 12.5176 0.000321507 12.5125 0.000321507C12.5075 0.000321507 12.5024 0.000321507 12.4973 0.000321507C12.4923 0.000321507 12.4872 0.000321507 12.4821 0.000321507C12.4771 0.000321507 12.472 0.000321507 12.467 0.000321507C12.4619 0.000321507 12.4568 0.000321507 12.4518 0.000321507C12.4467 0.000321507 12.4417 0.000321507 12.4366 0.000321507C12.4316 0.000321507 12.4265 0.000321507 12.4215 0.000321507C12.4165 0.000321507 12.4114 0.000321507 12.4064 0.000321507C12.4013 0.000321507 12.3963 0.000321507 12.3913 0.000321507C12.3863 0.000321507 12.3812 0.000321507 12.3762 0.000321507C12.3712 0.000321507 12.3661 0.000321507 12.3611 0.000321507C12.3561 0.000321507 12.3511 0.000321507 12.3461 0.000321507C12.3411 0.000321507 12.3361 0.000321507 12.331 0.000321507C12.326 0.000321507 12.321 0.000321507 12.316 0.000321507C12.311 0.000321507 12.306 0.000321507 12.301 0.000321507C12.296 0.000321507 12.291 0.000321507 12.2861 0.000321507C12.2811 0.000321507 12.2761 0.000321507 12.2711 0.000321507C12.2661 0.000321507 12.2611 0.000321507 12.2562 0.000321507C12.2512 0.000321507 12.2462 0.000321507 12.2412 0.000321507C12.2363 0.000321507 12.2313 0.000321507 12.2263 0.000321507C12.2214 0.000321507 12.2164 0.000321507 12.2115 0.000321507C12.2065 0.000321507 12.2015 0.000321507 12.1966 0.000321507C12.1916 0.000321507 12.1867 0.000321507 12.1817 0.000321507C12.1768 0.000321507 12.1719 0.000321507 12.1669 0.000321507C12.162 0.000321507 12.157 0.000321507 12.1521 0.000321507C12.1472 0.000321507 12.1423 0.000321507 12.1373 0.000321507C12.1324 0.000321507 12.1275 0.000321507 12.1226 0.000321507C12.1177 0.000321507 12.1127 0.000321507 12.1078 0.000321507C12.1029 0.000321507 12.098 0.000321507 12.0931 0.000321507C12.0882 0.000321507 12.0833 0.000321507 12.0784 0.000321507C12.0735 0.000321507 12.0686 0.000321507 12.0637 0.000321507C12.0588 0.000321507 12.054 0.000321507 12.0491 0.000321507C12.0442 0.000321507 12.0393 0.000321507 12.0344 0.000321507C12.0296 0.000321507 12.0247 0.000321507 12.0198 0.000321507C12.015 0.000321507 12.0101 0.000321507 12.0052 0.000321507C12.0004 0.000321507 11.9955 0.000321507 11.9907 0.000321507C11.9858 0.000321507 11.981 0.000321507 11.9761 0.000321507C11.9713 0.000321507 11.9664 0.000321507 11.9616 0.000321507C11.9568 0.000321507 11.9519 0.000321507 11.9471 0.000321507C11.9423 0.000321507 11.9375 0.000321507 11.9326 0.000321507C11.9278 0.000321507 11.923 0.000321507 11.9182 0.000321507C11.9134 0.000321507 11.9086 0.000321507 11.9038 0.000321507C11.899 0.000321507 11.8942 0.000321507 11.8894 0.000321507C11.8846 0.000321507 11.8798 0.000321507 11.875 0.000321507C11.8702 0.000321507 11.8654 0.000321507 11.8606 0.000321507C11.8559 0.000321507 11.8511 0.000321507 11.8463 0.000321507C11.8415 0.000321507 11.8368 0.000321507 11.832 0.000321507C11.8272 0.000321507 11.8225 0.000321507 11.8177 0.000321507C11.813 0.000321507 11.8082 0.000321507 11.8035 0.000321507C11.7987 0.000321507 11.794 0.000321507 11.7892 0.000321507C11.7845 0.000321507 11.7798 0.000321507 11.775 0.000321507C11.7703 0.000321507 11.7656 0.000321507 11.7609 0.000321507C11.7562 0.000321507 11.7514 0.000321507 11.7467 0.000321507C11.742 0.000321507 11.7373 0.000321507 11.7326 0.000321507C11.7279 0.000321507 11.7232 0.000321507 11.7185 0.000321507C11.7138 0.000321507 11.7091 0.000321507 11.7045 0.000321507C11.6998 0.000321507 11.6951 0.000321507 11.6904 0.000321507C11.6857 0.000321507 11.6811 0.000321507 11.6764 0.000321507C11.6717 0.000321507 11.6671 0.000321507 11.6624 0.000321507C11.6578 0.000321507 11.6531 0.000321507 11.6485 0.000321507C11.6438 0.000321507 11.6392 0.000321507 11.6345 0.000321507C11.6299 0.000321507 11.6253 0.000321507 11.6206 0.000321507C11.616 0.000321507 11.6114 0.000321507 11.6068 0.000321507C11.6022 0.000321507 11.5975 0.000321507 11.5929 0.000321507C11.5883 0.000321507 11.5837 0.000321507 11.5791 0.000321507C11.5745 0.000321507 11.5699 0.000321507 11.5653 0.000321507C11.5607 0.000321507 11.5562 0.000321507 11.5516 0.000321507C11.547 0.000321507 11.5424 0.000321507 11.5379 0.000321507C11.5333 0.000321507 11.5287 0.000321507 11.5242 0.000321507C11.5196 0.000321507 11.5151 0.000321507 11.5105 0.000321507C11.506 0.000321507 11.5014 0.000321507 11.4969 0.000321507C11.4923 0.000321507 11.4878 0.000321507 11.4833 0.000321507C11.4787 0.000321507 11.4742 0.000321507 11.4697 0.000321507C11.4652 0.000321507 11.4607 0.000321507 11.4562 0.000321507C11.4517 0.000321507 11.4472 0.000321507 11.4427 0.000321507C11.4382 0.000321507 11.4337 0.000321507 11.4292 0.000321507C11.4247 0.000321507 11.4202 0.000321507 11.4157 0.000321507C11.4113 0.000321507 11.4068 0.000321507 11.4023 0.000321507C11.3979 0.000321507 11.3934 0.000321507 11.3889 0.000321507C11.3845 0.000321507 11.38 0.000321507 11.3756 0.000321507C11.3712 0.000321507 11.3667 0.000321507 11.3623 0.000321507C11.3579 0.000321507 11.3534 0.000321507 11.349 0.000321507C11.3446 0.000321507 11.3402 0.000321507 11.3358 0.000321507C11.3313 0.000321507 11.3269 0.000321507 11.3225 0.000321507C11.3181 0.000321507 11.3137 0.000321507 11.3094 0.000321507C11.305 0.000321507 11.3006 0.000321507 11.2962 0.000321507C11.2918 0.000321507 11.2875 0.000321507 11.2831 0.000321507C11.2787 0.000321507 11.2744 0.000321507 11.27 0.000321507C11.2657 0.000321507 11.2613 0.000321507 11.257 0.000321507C11.2526 0.000321507 11.2483 0.000321507 11.244 0.000321507C11.2396 0.000321507 11.2353 0.000321507 11.231 0.000321507C11.2267 0.000321507 11.2224 0.000321507 11.2181 0.000321507C11.2137 0.000321507 11.2094 0.000321507 11.2052 0.000321507C11.2009 0.000321507 11.1966 0.000321507 11.1923 0.000321507C11.188 0.000321507 11.1837 0.000321507 11.1795 0.000321507C11.1752 0.000321507 11.1709 0.000321507 11.1667 0.000321507C11.1624 0.000321507 11.1581 0.000321507 11.1539 0.000321507C11.1496 0.000321507 11.1454 0.000321507 11.1412 0.000321507C11.1369 0.000321507 11.1327 0.000321507 11.1285 0.000321507C11.1243 0.000321507 11.12 0.000321507 11.1158 0.000321507C11.1116 0.000321507 11.1074 0.000321507 11.1032 0.000321507C11.099 0.000321507 11.0948 0.000321507 11.0906 0.000321507C11.0865 0.000321507 11.0823 0.000321507 11.0781 0.000321507C11.0739 0.000321507 11.0698 0.000321507 11.0656 0.000321507C11.0614 0.000321507 11.0573 0.000321507 11.0531 0.000321507C11.049 0.000321507 11.0449 0.000321507 11.0407 0.000321507C11.0366 0.000321507 11.0325 0.000321507 11.0283 0.000321507C11.0242 0.000321507 11.0201 0.000321507 11.016 0.000321507C11.0119 0.000321507 11.0078 0.000321507 11.0037 0.000321507C10.9996 0.000321507 10.9955 0.000321507 10.9914 0.000321507C10.9873 0.000321507 10.9833 0.000321507 10.9792 0.000321507C10.9751 0.000321507 10.9711 0.000321507 10.967 0.000321507C10.9629 0.000321507 10.9589 0.000321507 10.9549 0.000321507C10.9508 0.000321507 10.9468 0.000321507 10.9427 0.000321507C10.9387 0.000321507 10.9347 0.000321507 10.9307 0.000321507C10.9267 0.000321507 10.9226 0.000321507 10.9186 0.000321507C10.9146 0.000321507 10.9106 0.000321507 10.9067 0.000321507C10.9027 0.000321507 10.8987 0.000321507 10.8947 0.000321507C10.8907 0.000321507 10.8868 0.000321507 10.8828 0.000321507C10.8788 0.000321507 10.8749 0.000321507 10.8709 0.000321507C10.867 0.000321507 10.8631 0.000321507 10.8591 0.000321507C10.8552 0.000321507 10.8513 0.000321507 10.8473 0.000321507C10.8434 0.000321507 10.8395 0.000321507 10.8356 0.000321507C10.8317 0.000321507 10.8278 0.000321507 10.8239 0.000321507C10.82 0.000321507 10.8161 0.000321507 10.8123 0.000321507C10.8084 0.000321507 10.8045 0.000321507 10.8006 0.000321507C10.7968 0.000321507 10.7929 0.000321507 10.7891 0.000321507C10.7852 0.000321507 10.7814 0.000321507 10.7776 0.000321507C10.7737 0.000321507 10.7699 0.000321507 10.7661 0.000321507C10.7623 0.000321507 10.7584 0.000321507 10.7546 0.000321507C10.7508 0.000321507 10.747 0.000321507 10.7432 0.000321507C10.7395 0.000321507 10.7357 0.000321507 10.7319 0.000321507C10.7281 0.000321507 10.7243 0.000321507 10.7206 0.000321507C10.7168 0.000321507 10.7131 0.000321507 10.7093 0.000321507C10.7056 0.000321507 10.7018 0.000321507 10.6981 0.000321507C10.6944 0.000321507 10.6907 0.000321507 10.6869 0.000321507C10.6832 0.000321507 10.6795 0.000321507 10.6758 0.000321507C10.6721 0.000321507 10.6684 0.000321507 10.6647 0.000321507C10.6611 0.000321507 10.6574 0.000321507 10.6537 0.000321507C10.65 0.000321507 10.6464 0.000321507 10.6427 0.000321507C10.6391 0.000321507 10.6354 0.000321507 10.6318 0.000321507C10.6281 0.000321507 10.6245 0.000321507 10.6209 0.000321507C10.6173 0.000321507 10.6136 0.000321507 10.61 0.000321507C10.6064 0.000321507 10.6028 0.000321507 10.5992 0.000321507C10.5956 0.000321507 10.5921 0.000321507 10.5885 0.000321507C10.5849 0.000321507 10.5813 0.000321507 10.5778 0.000321507C10.5742 0.000321507 10.5707 0.000321507 10.5671 0.000321507C10.5636 0.000321507 10.56 0.000321507 10.5565 0.000321507C10.553 0.000321507 10.5494 0.000321507 10.5459 0.000321507C10.5424 0.000321507 10.5389 0.000321507 10.5354 0.000321507C10.5319 0.000321507 10.5284 0.000321507 10.5249 0.000321507C10.5215 0.000321507 10.518 0.000321507 10.5145 0.000321507C10.5111 0.000321507 10.5076 0.000321507 10.5042 0.000321507C10.5007 0.000321507 10.4973 0.000321507 10.4938 0.000321507C10.4904 0.000321507 10.487 0.000321507 10.4836 0.000321507C10.4801 0.000321507 10.4767 0.000321507 10.4733 0.000321507C10.4699 0.000321507 10.4665 0.000321507 10.4632 0.000321507C10.4598 0.000321507 10.4564 0.000321507 10.453 0.000321507C10.4497 0.000321507 10.4463 0.000321507 10.443 0.000321507C10.4396 0.000321507 10.4363 0.000321507 10.4329 0.000321507C10.4296 0.000321507 10.4263 0.000321507 10.423 0.000321507C10.4197 0.000321507 10.4163 0.000321507 10.413 0.000321507C10.4097 0.000321507 10.4065 0.000321507 10.4032 0.000321507C10.3999 0.000321507 10.3966 0.000321507 10.3934 0.000321507C10.3901 0.000321507 10.3868 0.000321507 10.3836 0.000321507C10.3803 0.000321507 10.3771 0.000321507 10.3739 0.000321507C10.3706 0.000321507 10.3674 0.000321507 10.3642 0.000321507C10.361 0.000321507 10.3578 0.000321507 10.3546 0.000321507C10.3514 0.000321507 10.3482 0.000321507 10.345 0.000321507C10.3419 0.000321507 10.3387 0.000321507 10.3355 0.000321507C10.3324 0.000321507 10.3292 0.000321507 10.3261 0.000321507C10.3229 0.000321507 10.3198 0.000321507 10.3167 0.000321507C10.3135 0.000321507 10.3104 0.000321507 10.3073 0.000321507C10.3042 0.000321507 10.3011 0.000321507 10.298 0.000321507C10.2949 0.000321507 10.2919 0.000321507 10.2888 0.000321507C10.2857 0.000321507 10.2827 0.000321507 10.2796 0.000321507C10.2765 0.000321507 10.2735 0.000321507 10.2705 0.000321507C10.2674 0.000321507 10.2644 0.000321507 10.2614 0.000321507C10.2584 0.000321507 10.2554 0.000321507 10.2524 0.000321507C10.2494 0.000321507 10.2464 0.000321507 10.2434 0.000321507C10.2404 0.000321507 10.2374 0.000321507 10.2345 0.000321507C10.2315 0.000321507 10.2286 0.000321507 10.2256 0.000321507C10.2227 0.000321507 10.2197 0.000321507 10.2168 0.000321507C10.2139 0.000321507 10.211 0.000321507 10.2081 0.000321507C10.2052 0.000321507 10.2023 0.000321507 10.1994 0.000321507C10.1965 0.000321507 10.1936 0.000321507 10.1907 0.000321507C10.1879 0.000321507 10.185 0.000321507 10.1822 0.000321507C10.1793 0.000321507 10.1765 0.000321507 10.1736 0.000321507C10.1708 0.000321507 10.168 0.000321507 10.1652 0.000321507C10.1624 0.000321507 10.1596 0.000321507 10.1568 0.000321507C10.154 0.000321507 10.1512 0.000321507 10.1484 0.000321507C10.1456 0.000321507 10.1429 0.000321507 10.1401 0.000321507C10.1374 0.000321507 10.1346 0.000321507 10.1319 0.000321507C10.1291 0.000321507 10.1264 0.000321507 10.1237 0.000321507C10.121 0.000321507 10.1183 0.000321507 10.1156 0.000321507C10.1129 0.000321507 10.1102 0.000321507 10.1075 0.000321507C10.1048 0.000321507 10.1022 0.000321507 10.0995 0.000321507V2.00032ZM15.908 0.90928C15.8106 1.97479 15.7231 3.73721 15.7768 5.30536C15.8035 6.08468 15.8662 6.85651 15.9927 7.48289C16.0555 7.79367 16.1421 8.11068 16.2699 8.38831C16.3855 8.63919 16.6059 9.01637 17.0256 9.22507L17.916 7.43422C18.109 7.53016 18.1357 7.65832 18.0865 7.5517C18.0498 7.47182 18.0008 7.32283 17.9531 7.08686C17.8588 6.61974 17.8009 5.97509 17.7756 5.23689C17.7254 3.77001 17.8081 2.0933 17.8997 1.09136L15.908 0.90928ZM17.0256 9.22507C18.0208 9.71986 18.9968 9.16818 19.5985 8.70162C20.2706 8.18055 20.9529 7.40346 21.5912 6.58312C22.8428 4.97469 24.2154 2.79739 25.0871 1.58368L23.4627 0.416966C22.4443 1.83485 21.2654 3.7451 20.0128 5.35488C19.399 6.14364 18.8409 6.75832 18.3731 7.12102C17.835 7.53823 17.7714 7.36232 17.916 7.43422L17.0256 9.22507ZM24.2751 2.00032C25.9765 1.99993 28.2438 2.00039 29.3782 2.00032L29.378 0.000321507C28.2448 0.00039494 25.9759 -7.34329e-05 24.2747 0.000321507L24.2751 2.00032ZM28.4846 0.551376C27.8579 1.7986 26.2546 6.07921 23.0029 9.31385L24.4133 10.7318C27.9659 7.19781 29.7643 2.45919 30.2717 1.44927L28.4846 0.551376ZM23.0031 10.7321C24.4281 12.1484 26.0994 13.8113 27.3451 15.2565C27.9713 15.9831 28.4561 16.6164 28.7466 17.1106C28.8931 17.3598 28.9641 17.5304 28.991 17.6301C29.0222 17.7456 28.9635 17.6434 29.0519 17.4675L30.8388 18.366C31.069 17.9081 31.0103 17.4359 30.9218 17.1086C30.8292 16.7655 30.661 16.4207 30.4708 16.0971C30.088 15.4458 29.5096 14.7044 28.86 13.9508C27.554 12.4355 25.8233 10.7153 24.4131 9.31358L23.0031 10.7321ZM29.9461 16.9167C29.0818 16.9161 28.042 16.9643 27.0864 16.987C26.0992 17.0106 25.164 17.0089 24.3847 16.9228L24.1651 18.9107C25.0869 19.0125 26.1365 19.0102 27.134 18.9865C28.1632 18.962 29.1081 18.9161 29.9447 18.9167L29.9461 16.9167ZM25.0926 17.3411C24.4049 16.3642 23.2552 14.925 22.0234 13.7741C21.4095 13.2006 20.7404 12.6655 20.0694 12.3008C19.4245 11.9502 18.6134 11.6674 17.7966 11.8704L18.2791 13.8113C18.3696 13.7888 18.6264 13.7928 19.1143 14.058C19.5761 14.309 20.1047 14.7186 20.658 15.2355C21.7603 16.2655 22.8218 17.5898 23.4572 18.4924L25.0926 17.3411ZM17.7966 11.8704C17.3415 11.9836 16.952 12.2046 16.65 12.5315C16.3552 12.8507 16.1887 13.222 16.0937 13.5732C15.9136 14.2379 15.9524 14.991 15.9886 15.5549C16.0306 16.2095 16.0693 16.6373 16.0246 16.9495C16.0047 17.089 15.9801 17.091 16.0154 17.044C16.0373 17.0149 16.0711 16.9825 16.1143 16.9574C16.1343 16.9458 16.152 16.9383 16.1655 16.9337C16.1787 16.9292 16.186 16.9281 16.1853 16.9282L16.4878 18.9052C16.9443 18.8354 17.3378 18.6126 17.613 18.2472C17.8631 17.9151 17.9609 17.5373 18.0045 17.2327C18.0869 16.6563 18.0173 15.9375 17.9845 15.4268C17.9459 14.8253 17.9433 14.3944 18.0241 14.096C18.0594 13.9655 18.099 13.9105 18.1193 13.8885C18.1325 13.8742 18.1672 13.8392 18.2791 13.8113L17.7966 11.8704ZM16.1853 16.9282C13.033 17.4105 9.38132 15.2217 6.46886 11.7738C5.04201 10.0846 3.85687 8.16245 3.06581 6.2711C2.27015 4.36877 1.89957 2.56175 2.02341 1.08382L0.030393 0.916819C-0.129288 2.82244 0.350683 4.96271 1.2207 7.04282C2.0953 9.13391 3.39094 11.2294 4.941 13.0644C7.98236 16.6649 12.2691 19.5507 16.4878 18.9052L16.1853 16.9282Z" fill="black"/>
</svg>
